<svg xmlns="http://www.w3.org/2000/svg" width="450" viewBox="0 0 450 150" height="150" version="1.0"><defs><clipPath id="a"><path d="M 110.230469 3.125 L 149.921875 3.125 L 149.921875 42.816406 L 110.230469 42.816406 Z M 110.230469 3.125"/></clipPath><clipPath id="b"><path d="M 89 11.367188 L 145.453125 -7.542969 L 164.359375 48.910156 L 107.910156 67.816406 Z M 89 11.367188"/></clipPath><clipPath id="c"><path d="M 145.148438 -7.441406 L 88.699219 11.46875 L 107.605469 67.921875 L 164.058594 49.011719 Z M 145.148438 -7.441406"/></clipPath><clipPath id="d"><path d="M 128 8 L 138.453125 8 L 138.453125 22 L 128 22 Z M 128 8"/></clipPath><clipPath id="e"><path d="M 89 11.367188 L 145.453125 -7.542969 L 164.359375 48.910156 L 107.910156 67.816406 Z M 89 11.367188"/></clipPath><clipPath id="f"><path d="M 145.148438 -7.441406 L 88.699219 11.46875 L 107.605469 67.921875 L 164.058594 49.011719 Z M 145.148438 -7.441406"/></clipPath><clipPath id="g"><path d="M 115 42 L 122 42 L 122 50.753906 L 115 50.753906 Z M 115 42"/></clipPath><clipPath id="h"><path d="M 89 11.367188 L 145.453125 -7.542969 L 164.359375 48.910156 L 107.910156 67.816406 Z M 89 11.367188"/></clipPath><clipPath id="i"><path d="M 145.148438 -7.441406 L 88.699219 11.46875 L 107.605469 67.921875 L 164.058594 49.011719 Z M 145.148438 -7.441406"/></clipPath><clipPath id="j"><path d="M 106 47.226562 L 120.816406 47.226562 L 120.816406 66.628906 L 106 66.628906 Z M 106 47.226562"/></clipPath><clipPath id="k"><path d="M 89 11.367188 L 145.453125 -7.542969 L 164.359375 48.910156 L 107.910156 67.816406 Z M 89 11.367188"/></clipPath><clipPath id="l"><path d="M 145.148438 -7.441406 L 88.699219 11.46875 L 107.605469 67.921875 L 164.058594 49.011719 Z M 145.148438 -7.441406"/></clipPath><clipPath id="m"><path d="M 107.585938 1 L 152 1 L 152 45.460938 L 107.585938 45.460938 Z M 107.585938 1"/></clipPath><clipPath id="n"><path d="M 89 11.367188 L 145.453125 -7.542969 L 164.359375 48.910156 L 107.910156 67.816406 Z M 89 11.367188"/></clipPath><clipPath id="o"><path d="M 145.148438 -7.441406 L 88.699219 11.46875 L 107.605469 67.921875 L 164.058594 49.011719 Z M 145.148438 -7.441406"/></clipPath><clipPath id="p"><path d="M 131.398438 21 L 139.335938 21 L 139.335938 26.058594 L 131.398438 26.058594 Z M 131.398438 21"/></clipPath><clipPath id="q"><path d="M 89 11.367188 L 145.453125 -7.542969 L 164.359375 48.910156 L 107.910156 67.816406 Z M 89 11.367188"/></clipPath><clipPath id="r"><path d="M 145.148438 -7.441406 L 88.699219 11.46875 L 107.605469 67.921875 L 164.058594 49.011719 Z M 145.148438 -7.441406"/></clipPath><clipPath id="s"><path d="M 117.285156 24 L 131.398438 24 L 131.398438 35.757812 L 117.285156 35.757812 Z M 117.285156 24"/></clipPath><clipPath id="t"><path d="M 89 11.367188 L 145.453125 -7.542969 L 164.359375 48.910156 L 107.910156 67.816406 Z M 89 11.367188"/></clipPath><clipPath id="u"><path d="M 145.148438 -7.441406 L 88.699219 11.46875 L 107.605469 67.921875 L 164.058594 49.011719 Z M 145.148438 -7.441406"/></clipPath><clipPath id="v"><path d="M 129.636719 29 L 135.808594 29 L 135.808594 36.640625 L 129.636719 36.640625 Z M 129.636719 29"/></clipPath><clipPath id="w"><path d="M 89 11.367188 L 145.453125 -7.542969 L 164.359375 48.910156 L 107.910156 67.816406 Z M 89 11.367188"/></clipPath><clipPath id="x"><path d="M 145.148438 -7.441406 L 88.699219 11.46875 L 107.605469 67.921875 L 164.058594 49.011719 Z M 145.148438 -7.441406"/></clipPath><clipPath id="y"><path d="M 93 84 L 122 84 L 122 118.5 L 93 118.5 Z M 93 84"/></clipPath><clipPath id="z"><path d="M 137 84 L 169 84 L 169 118.5 L 137 118.5 Z M 137 84"/></clipPath><clipPath id="A"><path d="M 181 84 L 218 84 L 218 118.5 L 181 118.5 Z M 181 84"/></clipPath><clipPath id="B"><path d="M 232 84 L 267 84 L 267 118.5 L 232 118.5 Z M 232 84"/></clipPath><clipPath id="C"><path d="M 283 84 L 309 84 L 309 118.5 L 283 118.5 Z M 283 84"/></clipPath><clipPath id="D"><path d="M 324 84 L 355 84 L 355 118.5 L 324 118.5 Z M 324 84"/></clipPath></defs><g clip-path="url(#a)"><g clip-path="url(#b)"><g clip-path="url(#c)"><path fill="#5048E5" d="M 138.507812 5.894531 C 128.957031 1.136719 117.347656 5.023438 112.589844 14.574219 C 107.832031 24.125 111.722656 35.730469 121.273438 40.484375 C 130.824219 45.246094 142.425781 41.359375 147.183594 31.808594 C 151.941406 22.257812 148.058594 10.652344 138.507812 5.894531 Z M 138.507812 5.894531"/></g></g></g><g clip-path="url(#d)"><g clip-path="url(#e)"><g clip-path="url(#f)"><path fill="#545C66" d="M 128.410156 13.035156 L 128.425781 13.027344 L 131.347656 21.75 L 138.308594 19.417969 L 135.386719 10.695312 C 134.742188 8.765625 132.65625 7.726562 130.726562 8.371094 C 128.808594 9.015625 127.761719 11.105469 128.410156 13.035156 Z M 128.410156 13.035156"/></g></g></g><g clip-path="url(#g)"><g clip-path="url(#h)"><g clip-path="url(#i)"><path fill="#CCD1D9" d="M 120.039062 42.957031 C 119.492188 42.683594 118.949219 42.390625 118.433594 42.070312 L 115.238281 48.488281 L 118.523438 50.132812 L 121.722656 43.714844 L 121.726562 43.703125 C 121.160156 43.488281 120.601562 43.234375 120.039062 42.957031 Z M 120.039062 42.957031"/></g></g></g><g clip-path="url(#j)"><g clip-path="url(#k)"><g clip-path="url(#l)"><path fill="#656D78" d="M 118.523438 50.132812 L 113.582031 47.664062 L 106.863281 61.160156 C 105.960938 62.980469 106.699219 65.1875 108.519531 66.09375 C 110.335938 66.996094 112.550781 66.253906 113.457031 64.4375 L 120.175781 50.949219 Z M 118.523438 50.132812"/></g></g></g><g clip-path="url(#m)"><g clip-path="url(#n)"><g clip-path="url(#o)"><path fill="#E6E9ED" d="M 121.726562 43.703125 C 132.285156 47.929688 144.496094 43.402344 149.65625 33.039062 C 155.09375 22.121094 150.648438 8.863281 139.738281 3.425781 C 128.820312 -2.011719 115.5625 2.429688 110.125 13.34375 C 104.960938 23.710938 108.699219 36.191406 118.433594 42.070312 C 118.949219 42.390625 119.496094 42.683594 120.042969 42.957031 C 120.601562 43.234375 121.160156 43.488281 121.726562 43.703125 Z M 138.507812 5.894531 C 148.058594 10.652344 151.941406 22.257812 147.183594 31.808594 C 142.425781 41.359375 130.824219 45.246094 121.273438 40.484375 C 111.722656 35.730469 107.832031 24.125 112.589844 14.574219 C 117.347656 5.023438 128.953125 1.136719 138.507812 5.894531 Z M 138.507812 5.894531"/></g></g></g><g clip-path="url(#p)"><g clip-path="url(#q)"><g clip-path="url(#r)"><path fill="#545C66" d="M 138.890625 21.164062 L 131.914062 23.5 C 132.558594 25.429688 134.65625 26.46875 136.574219 25.824219 C 138.5 25.179688 139.539062 23.09375 138.890625 21.164062 Z M 138.890625 21.164062"/></g></g></g><g clip-path="url(#s)"><g clip-path="url(#t)"><g clip-path="url(#u)"><path fill="#545C66" d="M 119.796875 31.089844 L 119.808594 31.078125 L 128.042969 35.175781 L 131.320312 28.601562 L 123.082031 24.503906 C 121.261719 23.59375 119.054688 24.335938 118.148438 26.152344 C 117.242188 27.96875 117.980469 30.183594 119.796875 31.089844 Z M 119.796875 31.089844"/></g></g></g><g clip-path="url(#v)"><g clip-path="url(#w)"><g clip-path="url(#x)"><path fill="#545C66" d="M 132.964844 29.425781 L 129.683594 36.015625 C 131.503906 36.921875 133.71875 36.171875 134.621094 34.359375 C 135.527344 32.542969 134.785156 30.332031 132.964844 29.425781 Z M 132.964844 29.425781"/></g></g></g><path fill="#5048E5" d="M 72.726562 28.800781 C 74.421875 30.722656 76.199219 32.21875 78.058594 33.292969 C 79.910156 34.359375 82.199219 34.890625 84.921875 34.890625 C 86.359375 34.890625 87.753906 34.699219 89.097656 34.3125 C 90.4375 33.925781 91.539062 33.363281 92.40625 32.617188 C 93.265625 31.867188 93.699219 30.910156 93.699219 29.75 C 93.699219 28.152344 92.824219 27.019531 91.082031 26.347656 C 89.34375 25.679688 86.90625 25.117188 83.761719 24.664062 C 79.855469 24.085938 76.761719 23.03125 74.476562 21.496094 C 72.1875 19.960938 71.042969 17.707031 71.042969 14.730469 C 71.042969 12.71875 71.65625 10.988281 72.890625 9.535156 C 74.121094 8.074219 75.773438 6.953125 77.851562 6.171875 C 79.9375 5.382812 82.242188 4.984375 84.769531 4.984375 C 87.910156 4.984375 90.617188 5.503906 92.886719 6.53125 C 95.152344 7.550781 96.964844 9.003906 98.316406 10.882812 L 94.761719 14.632812 C 93.636719 13.164062 92.230469 11.964844 90.53125 11.035156 C 88.839844 10.109375 86.871094 9.644531 84.632812 9.644531 C 82.324219 9.644531 80.394531 10.054688 78.84375 10.871094 C 77.289062 11.691406 76.515625 12.835938 76.515625 14.300781 C 76.515625 15.453125 76.890625 16.367188 77.644531 17.058594 C 78.394531 17.746094 79.453125 18.296875 80.8125 18.699219 C 82.171875 19.09375 83.765625 19.421875 85.597656 19.675781 C 87.351562 19.933594 89.035156 20.265625 90.652344 20.667969 C 92.269531 21.066406 93.71875 21.605469 94.996094 22.296875 C 96.28125 22.984375 97.296875 23.859375 98.039062 24.914062 C 98.792969 25.960938 99.171875 27.269531 99.171875 28.839844 C 99.171875 31.019531 98.578125 32.90625 97.394531 34.503906 C 96.214844 36.105469 94.539062 37.34375 92.363281 38.226562 C 90.1875 39.109375 87.621094 39.550781 84.671875 39.550781 C 81.511719 39.550781 78.652344 39.039062 76.085938 38.019531 C 73.523438 36.992188 71.28125 35.324219 69.363281 33.015625 Z M 72.726562 28.800781"/><path fill="#5048E5" d="M 165.210938 5.46875 L 190.652344 5.46875 L 190.652344 10.457031 L 170.40625 10.457031 L 170.40625 19.332031 L 188.019531 19.332031 L 188.019531 24.335938 L 170.40625 24.335938 L 170.40625 34.078125 L 190.652344 34.078125 L 190.652344 39.066406 L 165.210938 39.066406 Z M 165.210938 5.46875"/><path fill="#5048E5" d="M 238.699219 34.367188 C 237.871094 35.132812 236.75 35.910156 235.335938 36.710938 C 233.929688 37.507812 232.308594 38.183594 230.472656 38.734375 C 228.632812 39.277344 226.6875 39.550781 224.644531 39.550781 C 222.078125 39.550781 219.695312 39.140625 217.492188 38.324219 C 215.285156 37.507812 213.355469 36.347656 211.703125 34.851562 C 210.054688 33.34375 208.769531 31.527344 207.84375 29.40625 C 206.914062 27.277344 206.453125 24.894531 206.453125 22.265625 C 206.453125 19.808594 206.9375 17.535156 207.914062 15.460938 C 208.882812 13.375 210.21875 11.566406 211.910156 10.03125 C 213.605469 8.496094 215.5625 7.308594 217.765625 6.460938 C 219.976562 5.605469 222.316406 5.179688 224.78125 5.179688 C 226.828125 5.179688 228.769531 5.460938 230.609375 6.019531 C 232.457031 6.582031 234.105469 7.292969 235.558594 8.15625 C 237.019531 9.019531 238.191406 9.917969 239.085938 10.84375 L 235.875 14.976562 C 234.335938 13.625 232.636719 12.515625 230.761719 11.640625 C 228.886719 10.761719 226.796875 10.320312 224.492188 10.320312 C 222.863281 10.320312 221.285156 10.589844 219.765625 11.132812 C 218.25 11.675781 216.886719 12.464844 215.683594 13.503906 C 214.488281 14.542969 213.527344 15.800781 212.804688 17.277344 C 212.089844 18.75 211.730469 20.414062 211.730469 22.265625 C 211.730469 24.960938 212.355469 27.210938 213.617188 29.019531 C 214.886719 30.820312 216.542969 32.183594 218.59375 33.097656 C 220.640625 34.007812 222.851562 34.464844 225.222656 34.464844 C 226.882812 34.464844 228.382812 34.238281 229.726562 33.789062 C 231.066406 33.339844 232.265625 32.777344 233.324219 32.105469 C 234.378906 31.4375 235.328125 30.765625 236.164062 30.09375 Z M 238.699219 34.367188"/><path fill="#5048E5" d="M 263.566406 39.066406 L 263.566406 10.457031 L 252.046875 10.457031 L 252.046875 5.46875 L 280.617188 5.46875 L 280.617188 10.457031 L 268.75 10.457031 L 268.75 39.066406 Z M 263.566406 39.066406"/><path fill="#5048E5" d="M 331.734375 22.265625 C 331.734375 24.703125 331.269531 26.96875 330.339844 29.0625 C 329.410156 31.15625 328.097656 32.988281 326.398438 34.558594 C 324.707031 36.125 322.710938 37.34375 320.40625 38.226562 C 318.097656 39.109375 315.554688 39.550781 312.769531 39.550781 C 310.019531 39.550781 307.484375 39.109375 305.164062 38.226562 C 302.847656 37.34375 300.847656 36.125 299.167969 34.558594 C 297.488281 32.988281 296.179688 31.15625 295.253906 29.0625 C 294.324219 26.96875 293.863281 24.703125 293.863281 22.265625 C 293.863281 19.835938 294.324219 17.566406 295.253906 15.472656 C 296.179688 13.378906 297.488281 11.550781 299.167969 9.988281 C 300.847656 8.417969 302.847656 7.191406 305.164062 6.308594 C 307.484375 5.425781 310.019531 4.984375 312.769531 4.984375 C 315.554688 4.984375 318.097656 5.425781 320.40625 6.308594 C 322.710938 7.191406 324.707031 8.417969 326.398438 9.988281 C 328.097656 11.550781 329.410156 13.378906 330.339844 15.472656 C 331.269531 17.566406 331.734375 19.835938 331.734375 22.265625 Z M 326.453125 22.265625 C 326.453125 19.933594 325.867188 17.851562 324.703125 16.011719 C 323.535156 14.164062 321.921875 12.710938 319.855469 11.640625 C 317.785156 10.566406 315.421875 10.03125 312.769531 10.03125 C 310.085938 10.03125 307.71875 10.566406 305.671875 11.640625 C 303.621094 12.710938 302.019531 14.164062 300.863281 16.011719 C 299.710938 17.851562 299.140625 19.933594 299.140625 22.265625 C 299.140625 24.601562 299.710938 26.691406 300.863281 28.539062 C 302.019531 30.378906 303.621094 31.832031 305.671875 32.90625 C 307.71875 33.976562 310.085938 34.503906 312.769531 34.503906 C 315.421875 34.503906 317.785156 33.976562 319.855469 32.90625 C 321.921875 31.832031 323.535156 30.367188 324.703125 28.511719 C 325.867188 26.65625 326.453125 24.574219 326.453125 22.265625 Z M 326.453125 22.265625"/><path fill="#5048E5" d="M 377.089844 15.929688 C 377.089844 18.199219 376.390625 20.238281 374.992188 22.046875 C 373.605469 23.859375 371.839844 25.148438 369.703125 25.917969 L 378.824219 39.109375 L 372.390625 39.066406 L 363.84375 26.582031 L 353.769531 26.582031 L 353.769531 39.066406 L 348.574219 39.066406 L 348.574219 5.46875 L 366.296875 5.46875 C 368.179688 5.46875 369.9375 5.917969 371.5625 6.820312 C 373.195312 7.710938 374.523438 8.941406 375.546875 10.511719 C 376.570312 12.078125 377.089844 13.882812 377.089844 15.929688 Z M 365.042969 10.457031 L 353.769531 10.457031 L 353.769531 21.59375 L 365.527344 21.59375 C 366.671875 21.59375 367.710938 21.332031 368.640625 20.808594 C 369.566406 20.277344 370.292969 19.578125 370.816406 18.710938 C 371.347656 17.851562 371.617188 16.921875 371.617188 15.929688 C 371.617188 14.875 371.316406 13.929688 370.722656 13.101562 C 370.132812 12.269531 369.332031 11.621094 368.324219 11.160156 C 367.320312 10.691406 366.230469 10.457031 365.042969 10.457031 Z M 365.042969 10.457031"/><g clip-path="url(#y)"><path fill="#737373" d="M 104.925781 118.445312 L 104.925781 89.835938 L 93.40625 89.835938 L 93.40625 84.847656 L 121.976562 84.847656 L 121.976562 89.835938 L 110.109375 89.835938 L 110.109375 118.445312 Z M 104.925781 118.445312"/></g><g clip-path="url(#z)"><path fill="#737373" d="M 166.269531 95.308594 C 166.269531 97.578125 165.570312 99.617188 164.175781 101.425781 C 162.785156 103.238281 161.023438 104.527344 158.882812 105.300781 L 168.007812 118.488281 L 161.570312 118.445312 L 153.027344 105.960938 L 142.953125 105.960938 L 142.953125 118.445312 L 137.757812 118.445312 L 137.757812 84.847656 L 155.480469 84.847656 C 157.359375 84.847656 159.117188 85.300781 160.742188 86.199219 C 162.378906 87.089844 163.707031 88.320312 164.726562 89.890625 C 165.753906 91.457031 166.269531 93.261719 166.269531 95.308594 Z M 154.226562 89.835938 L 142.953125 89.835938 L 142.953125 100.972656 L 154.707031 100.972656 C 155.855469 100.972656 156.890625 100.710938 157.824219 100.1875 C 158.75 99.65625 159.476562 98.957031 160 98.09375 C 160.53125 97.230469 160.800781 96.300781 160.800781 95.308594 C 160.800781 94.253906 160.5 93.308594 159.902344 92.484375 C 159.3125 91.648438 158.515625 91 157.503906 90.539062 C 156.503906 90.070312 155.410156 89.835938 154.226562 89.835938 Z M 154.226562 89.835938"/></g><g clip-path="url(#A)"><path fill="#737373" d="M 211.976562 118.445312 L 208.367188 110.386719 L 190.617188 110.386719 L 186.964844 118.445312 L 181.589844 118.445312 L 196.75 84.847656 L 202.5625 84.847656 L 217.640625 118.445312 Z M 196.898438 96.5625 L 192.863281 105.394531 L 206.121094 105.394531 L 201.984375 96.371094 C 201.570312 95.34375 201.152344 94.328125 200.730469 93.335938 C 200.316406 92.34375 199.90625 91.292969 199.492188 90.179688 C 199.039062 91.332031 198.609375 92.425781 198.195312 93.460938 C 197.78125 94.5 197.347656 95.535156 196.898438 96.5625 Z M 196.898438 96.5625"/></g><g clip-path="url(#B)"><path fill="#737373" d="M 248.589844 84.847656 C 251.503906 84.847656 254.070312 85.289062 256.296875 86.171875 C 258.515625 87.046875 260.375 88.257812 261.863281 89.808594 C 263.351562 91.363281 264.46875 93.160156 265.226562 95.199219 C 265.976562 97.230469 266.355469 99.378906 266.355469 101.648438 C 266.355469 104.71875 265.683594 107.523438 264.34375 110.066406 C 263 112.613281 261.015625 114.648438 258.390625 116.171875 C 255.761719 117.6875 252.496094 118.445312 248.589844 118.445312 L 232.992188 118.445312 L 232.992188 84.847656 Z M 248.355469 113.457031 C 251.296875 113.457031 253.683594 112.929688 255.523438 111.875 C 257.371094 110.820312 258.722656 109.390625 259.589844 107.601562 C 260.449219 105.808594 260.882812 103.824219 260.882812 101.648438 C 260.882812 99.535156 260.449219 97.582031 259.589844 95.789062 C 258.722656 94 257.371094 92.5625 255.523438 91.476562 C 253.683594 90.382812 251.296875 89.835938 248.355469 89.835938 L 238.1875 89.835938 L 238.1875 113.457031 Z M 248.355469 113.457031"/></g><g clip-path="url(#C)"><path fill="#737373" d="M 283.199219 84.847656 L 308.640625 84.847656 L 308.640625 89.835938 L 288.394531 89.835938 L 288.394531 98.710938 L 306.007812 98.710938 L 306.007812 103.714844 L 288.394531 103.714844 L 288.394531 113.457031 L 308.640625 113.457031 L 308.640625 118.445312 L 283.199219 118.445312 Z M 283.199219 84.847656"/></g><g clip-path="url(#D)"><path fill="#737373" d="M 327.84375 108.179688 C 329.542969 110.101562 331.320312 111.597656 333.179688 112.671875 C 335.03125 113.742188 337.320312 114.269531 340.042969 114.269531 C 341.480469 114.269531 342.875 114.078125 344.21875 113.691406 C 345.558594 113.304688 346.660156 112.742188 347.523438 111.996094 C 348.386719 111.246094 348.820312 110.289062 348.820312 109.128906 C 348.820312 107.53125 347.945312 106.398438 346.203125 105.726562 C 344.464844 105.058594 342.027344 104.496094 338.882812 104.046875 C 334.976562 103.464844 331.882812 102.414062 329.59375 100.875 C 327.308594 99.34375 326.164062 97.085938 326.164062 94.109375 C 326.164062 92.097656 326.777344 90.367188 328.011719 88.914062 C 329.242188 87.453125 330.894531 86.332031 332.972656 85.550781 C 335.054688 84.761719 337.359375 84.367188 339.890625 84.367188 C 343.03125 84.367188 345.738281 84.882812 348.007812 85.910156 C 350.273438 86.929688 352.085938 88.382812 353.4375 90.265625 L 349.882812 94.011719 C 348.757812 92.546875 347.347656 91.347656 345.648438 90.414062 C 343.957031 89.488281 341.992188 89.023438 339.753906 89.023438 C 337.445312 89.023438 335.515625 89.433594 333.964844 90.25 C 332.410156 91.070312 331.636719 92.214844 331.636719 93.683594 C 331.636719 94.832031 332.011719 95.75 332.765625 96.4375 C 333.515625 97.128906 334.574219 97.675781 335.933594 98.078125 C 337.292969 98.472656 338.886719 98.800781 340.714844 99.054688 C 342.46875 99.316406 344.15625 99.644531 345.773438 100.050781 C 347.390625 100.445312 348.835938 100.984375 350.117188 101.675781 C 351.402344 102.363281 352.417969 103.238281 353.160156 104.292969 C 353.914062 105.339844 354.292969 106.648438 354.292969 108.222656 C 354.292969 110.398438 353.699219 112.285156 352.511719 113.886719 C 351.335938 115.484375 349.660156 116.722656 347.484375 117.605469 C 345.304688 118.488281 342.742188 118.929688 339.792969 118.929688 C 336.628906 118.929688 333.769531 118.417969 331.207031 117.398438 C 328.644531 116.371094 326.402344 114.707031 324.480469 112.398438 Z M 327.84375 108.179688"/></g><g fill="#737373"><g><g><path d="M 1.515625 0 L 1.515625 -7 L 6.828125 -7 L 6.828125 -5.953125 L 2.59375 -5.953125 L 2.59375 -3.953125 L 6.375 -3.953125 L 6.375 -2.921875 L 2.59375 -2.921875 L 2.59375 0 Z M 1.515625 0" transform="translate(118.043 138.75)"/></g></g></g><g fill="#737373"><g><g><path d="M 2.203125 -6.25 C 1.960938 -6.25 1.785156 -6.304688 1.671875 -6.421875 C 1.566406 -6.546875 1.515625 -6.707031 1.515625 -6.90625 C 1.515625 -7.070312 1.566406 -7.21875 1.671875 -7.34375 C 1.785156 -7.476562 1.960938 -7.546875 2.203125 -7.546875 C 2.441406 -7.546875 2.617188 -7.484375 2.734375 -7.359375 C 2.847656 -7.242188 2.90625 -7.09375 2.90625 -6.90625 C 2.90625 -6.738281 2.847656 -6.585938 2.734375 -6.453125 C 2.617188 -6.316406 2.441406 -6.25 2.203125 -6.25 Z M 2.5625 0 L 1.546875 0 L 1.546875 -5.25 L 2.5625 -5.25 Z M 2.5625 0" transform="translate(125.94 138.75)"/></g></g></g><g fill="#737373"><g><g><path d="M 4.734375 -5.359375 C 5.253906 -5.359375 5.679688 -5.257812 6.015625 -5.0625 C 6.347656 -4.863281 6.59375 -4.59375 6.75 -4.25 C 6.90625 -3.914062 6.984375 -3.546875 6.984375 -3.140625 L 6.984375 0 L 5.953125 0 L 5.953125 -3 C 5.953125 -3.414062 5.816406 -3.753906 5.546875 -4.015625 C 5.273438 -4.285156 4.910156 -4.414062 4.453125 -4.40625 C 4.117188 -4.40625 3.816406 -4.328125 3.546875 -4.171875 C 3.285156 -4.023438 3.078125 -3.835938 2.921875 -3.609375 C 2.773438 -3.378906 2.703125 -3.148438 2.703125 -2.921875 L 2.703125 0 L 1.671875 0 L 1.671875 -5.25 L 2.703125 -5.25 L 2.703125 -4.328125 C 2.921875 -4.597656 3.203125 -4.835938 3.546875 -5.046875 C 3.890625 -5.253906 4.285156 -5.359375 4.734375 -5.359375 Z M 4.734375 -5.359375" transform="translate(130.378 138.75)"/></g></g></g><g fill="#737373"><g><g><path d="M 7.046875 -7.40625 L 7.046875 0 L 6.015625 0 L 6.015625 -0.84375 C 5.890625 -0.6875 5.710938 -0.535156 5.484375 -0.390625 C 5.265625 -0.253906 5.007812 -0.140625 4.71875 -0.046875 C 4.4375 0.046875 4.132812 0.09375 3.8125 0.09375 C 3.238281 0.09375 2.734375 -0.0195312 2.296875 -0.25 C 1.859375 -0.476562 1.515625 -0.800781 1.265625 -1.21875 C 1.023438 -1.632812 0.90625 -2.101562 0.90625 -2.625 C 0.90625 -3.164062 1.03125 -3.640625 1.28125 -4.046875 C 1.539062 -4.453125 1.890625 -4.769531 2.328125 -5 C 2.765625 -5.238281 3.269531 -5.359375 3.84375 -5.359375 C 4.320312 -5.359375 4.75 -5.273438 5.125 -5.109375 C 5.507812 -4.941406 5.804688 -4.75 6.015625 -4.53125 L 6.015625 -7.40625 Z M 4.015625 -0.828125 C 4.421875 -0.828125 4.773438 -0.90625 5.078125 -1.0625 C 5.390625 -1.21875 5.628906 -1.429688 5.796875 -1.703125 C 5.972656 -1.972656 6.0625 -2.28125 6.0625 -2.625 C 6.0625 -2.96875 5.972656 -3.273438 5.796875 -3.546875 C 5.628906 -3.816406 5.390625 -4.03125 5.078125 -4.1875 C 4.773438 -4.351562 4.421875 -4.4375 4.015625 -4.4375 C 3.609375 -4.4375 3.25 -4.351562 2.9375 -4.1875 C 2.632812 -4.03125 2.394531 -3.816406 2.21875 -3.546875 C 2.039062 -3.273438 1.953125 -2.96875 1.953125 -2.625 C 1.953125 -2.28125 2.039062 -1.972656 2.21875 -1.703125 C 2.394531 -1.429688 2.632812 -1.21875 2.9375 -1.0625 C 3.25 -0.90625 3.609375 -0.828125 4.015625 -0.828125 Z M 4.015625 -0.828125" transform="translate(139.015 138.75)"/></g></g></g><g fill="#737373"><g><g><path d="M 5.703125 0 L 1.484375 0 L 1.484375 -1.046875 L 3.046875 -1.046875 L 3.046875 -5.953125 L 1.484375 -5.953125 L 1.484375 -7 L 5.703125 -7 L 5.703125 -5.953125 L 4.125 -5.953125 L 4.125 -1.046875 L 5.703125 -1.046875 Z M 5.703125 0" transform="translate(151.57 138.75)"/></g></g></g><g fill="#737373"><g><g><path d="M 4.734375 -5.359375 C 5.253906 -5.359375 5.679688 -5.257812 6.015625 -5.0625 C 6.347656 -4.863281 6.59375 -4.59375 6.75 -4.25 C 6.90625 -3.914062 6.984375 -3.546875 6.984375 -3.140625 L 6.984375 0 L 5.953125 0 L 5.953125 -3 C 5.953125 -3.414062 5.816406 -3.753906 5.546875 -4.015625 C 5.273438 -4.285156 4.910156 -4.414062 4.453125 -4.40625 C 4.117188 -4.40625 3.816406 -4.328125 3.546875 -4.171875 C 3.285156 -4.023438 3.078125 -3.835938 2.921875 -3.609375 C 2.773438 -3.378906 2.703125 -3.148438 2.703125 -2.921875 L 2.703125 0 L 1.671875 0 L 1.671875 -5.25 L 2.703125 -5.25 L 2.703125 -4.328125 C 2.921875 -4.597656 3.203125 -4.835938 3.546875 -5.046875 C 3.890625 -5.253906 4.285156 -5.359375 4.734375 -5.359375 Z M 4.734375 -5.359375" transform="translate(158.757 138.75)"/></g></g></g><g fill="#737373"><g><g><path d="M 1.796875 -5.25 L 3.8125 -1.1875 L 5.875 -5.25 L 7 -5.25 L 4.203125 0 L 3.328125 0 L 0.625 -5.25 Z M 1.796875 -5.25" transform="translate(167.393 138.75)"/></g></g></g><g fill="#737373"><g><g><path d="M 6.765625 -0.6875 C 6.578125 -0.550781 6.347656 -0.421875 6.078125 -0.296875 C 5.804688 -0.179688 5.507812 -0.0859375 5.1875 -0.015625 C 4.863281 0.0546875 4.53125 0.09375 4.1875 0.09375 C 3.539062 0.09375 2.96875 -0.0195312 2.46875 -0.25 C 1.976562 -0.476562 1.59375 -0.789062 1.3125 -1.1875 C 1.039062 -1.59375 0.90625 -2.050781 0.90625 -2.5625 C 0.90625 -3.15625 1.050781 -3.660156 1.34375 -4.078125 C 1.644531 -4.492188 2.035156 -4.8125 2.515625 -5.03125 C 2.992188 -5.257812 3.519531 -5.375 4.09375 -5.375 C 4.632812 -5.375 5.125 -5.265625 5.5625 -5.046875 C 6 -4.828125 6.347656 -4.523438 6.609375 -4.140625 C 6.867188 -3.765625 7 -3.320312 7 -2.8125 L 6.984375 -2.3125 L 1.953125 -2.3125 C 2.046875 -1.863281 2.304688 -1.503906 2.734375 -1.234375 C 3.171875 -0.972656 3.710938 -0.84375 4.359375 -0.84375 C 4.828125 -0.84375 5.21875 -0.910156 5.53125 -1.046875 C 5.84375 -1.191406 6.097656 -1.328125 6.296875 -1.453125 Z M 4.09375 -4.421875 C 3.570312 -4.421875 3.117188 -4.320312 2.734375 -4.125 C 2.347656 -3.9375 2.097656 -3.609375 1.984375 -3.140625 L 5.953125 -3.140625 L 5.953125 -3.265625 C 5.921875 -3.492188 5.8125 -3.691406 5.625 -3.859375 C 5.445312 -4.035156 5.222656 -4.171875 4.953125 -4.265625 C 4.679688 -4.367188 4.394531 -4.421875 4.09375 -4.421875 Z M 4.09375 -4.421875" transform="translate(175.01 138.75)"/></g></g></g><g fill="#737373"><g><g><path d="M 5.3125 -3.828125 C 5.0625 -4.023438 4.765625 -4.1875 4.421875 -4.3125 C 4.078125 -4.445312 3.75 -4.515625 3.4375 -4.515625 C 3.25 -4.515625 3.046875 -4.492188 2.828125 -4.453125 C 2.617188 -4.421875 2.4375 -4.359375 2.28125 -4.265625 C 2.132812 -4.179688 2.0625 -4.050781 2.0625 -3.875 C 2.0625 -3.726562 2.132812 -3.601562 2.28125 -3.5 C 2.425781 -3.394531 2.613281 -3.3125 2.84375 -3.25 C 3.082031 -3.1875 3.34375 -3.128906 3.625 -3.078125 C 3.90625 -3.035156 4.175781 -2.976562 4.4375 -2.90625 C 4.707031 -2.832031 4.953125 -2.738281 5.171875 -2.625 C 5.398438 -2.507812 5.578125 -2.363281 5.703125 -2.1875 C 5.835938 -2.019531 5.90625 -1.8125 5.90625 -1.5625 C 5.90625 -1.195312 5.796875 -0.890625 5.578125 -0.640625 C 5.367188 -0.398438 5.085938 -0.21875 4.734375 -0.09375 C 4.378906 0.03125 3.988281 0.09375 3.5625 0.09375 C 3.03125 0.09375 2.535156 0.0195312 2.078125 -0.125 C 1.617188 -0.269531 1.226562 -0.519531 0.90625 -0.875 L 1.609375 -1.515625 C 1.835938 -1.273438 2.109375 -1.085938 2.421875 -0.953125 C 2.742188 -0.828125 3.109375 -0.765625 3.515625 -0.765625 C 3.710938 -0.765625 3.914062 -0.78125 4.125 -0.8125 C 4.34375 -0.851562 4.523438 -0.921875 4.671875 -1.015625 C 4.816406 -1.109375 4.890625 -1.242188 4.890625 -1.421875 C 4.890625 -1.578125 4.816406 -1.695312 4.671875 -1.78125 C 4.523438 -1.875 4.328125 -1.945312 4.078125 -2 C 3.835938 -2.0625 3.578125 -2.117188 3.296875 -2.171875 C 2.898438 -2.253906 2.53125 -2.347656 2.1875 -2.453125 C 1.84375 -2.554688 1.566406 -2.710938 1.359375 -2.921875 C 1.148438 -3.140625 1.046875 -3.445312 1.046875 -3.84375 C 1.046875 -4.15625 1.148438 -4.421875 1.359375 -4.640625 C 1.578125 -4.867188 1.863281 -5.046875 2.21875 -5.171875 C 2.582031 -5.296875 2.984375 -5.359375 3.421875 -5.359375 C 3.691406 -5.359375 3.976562 -5.328125 4.28125 -5.265625 C 4.59375 -5.210938 4.882812 -5.125 5.15625 -5 C 5.4375 -4.875 5.675781 -4.710938 5.875 -4.515625 Z M 5.3125 -3.828125" transform="translate(183.077 138.75)"/></g></g></g><g fill="#737373"><g><g><path d="M 3.40625 0 L 2.375 0 L 2.375 -4.25 L 0.90625 -4.25 L 0.90625 -5.25 L 2.375 -5.25 L 2.375 -6.78125 L 3.40625 -6.78125 L 3.40625 -5.25 L 5.140625 -5.25 L 5.140625 -4.25 L 3.40625 -4.25 Z M 3.40625 0" transform="translate(189.905 138.75)"/></g></g></g><g fill="#737373"><g><g><path d="M 4.71875 -5.34375 C 5.175781 -5.34375 5.566406 -5.242188 5.890625 -5.046875 C 6.210938 -4.859375 6.4375 -4.578125 6.5625 -4.203125 C 6.695312 -4.367188 6.875 -4.539062 7.09375 -4.71875 C 7.320312 -4.894531 7.582031 -5.039062 7.875 -5.15625 C 8.164062 -5.28125 8.484375 -5.34375 8.828125 -5.34375 C 9.359375 -5.34375 9.773438 -5.238281 10.078125 -5.03125 C 10.390625 -4.832031 10.609375 -4.5625 10.734375 -4.21875 C 10.859375 -3.875 10.921875 -3.5 10.921875 -3.09375 L 10.921875 0 L 9.875 0 L 9.875 -2.953125 C 9.875 -3.378906 9.773438 -3.722656 9.578125 -3.984375 C 9.390625 -4.253906 9.0625 -4.390625 8.59375 -4.390625 C 8.238281 -4.390625 7.921875 -4.316406 7.640625 -4.171875 C 7.359375 -4.023438 7.132812 -3.828125 6.96875 -3.578125 C 6.8125 -3.328125 6.734375 -3.054688 6.734375 -2.765625 L 6.734375 0 L 5.6875 0 L 5.6875 -2.984375 C 5.6875 -3.390625 5.578125 -3.722656 5.359375 -3.984375 C 5.140625 -4.253906 4.78125 -4.390625 4.28125 -4.390625 C 3.945312 -4.390625 3.648438 -4.3125 3.390625 -4.15625 C 3.140625 -4.007812 2.9375 -3.816406 2.78125 -3.578125 C 2.632812 -3.347656 2.5625 -3.125 2.5625 -2.90625 L 2.5625 0 L 1.53125 0 L 1.53125 -5.25 L 2.5625 -5.25 L 2.5625 -4.40625 C 2.78125 -4.644531 3.070312 -4.859375 3.4375 -5.046875 C 3.800781 -5.242188 4.226562 -5.34375 4.71875 -5.34375 Z M 4.71875 -5.34375" transform="translate(196.082 138.75)"/></g></g></g><g fill="#737373"><g><g><path d="M 6.765625 -0.6875 C 6.578125 -0.550781 6.347656 -0.421875 6.078125 -0.296875 C 5.804688 -0.179688 5.507812 -0.0859375 5.1875 -0.015625 C 4.863281 0.0546875 4.53125 0.09375 4.1875 0.09375 C 3.539062 0.09375 2.96875 -0.0195312 2.46875 -0.25 C 1.976562 -0.476562 1.59375 -0.789062 1.3125 -1.1875 C 1.039062 -1.59375 0.90625 -2.050781 0.90625 -2.5625 C 0.90625 -3.15625 1.050781 -3.660156 1.34375 -4.078125 C 1.644531 -4.492188 2.035156 -4.8125 2.515625 -5.03125 C 2.992188 -5.257812 3.519531 -5.375 4.09375 -5.375 C 4.632812 -5.375 5.125 -5.265625 5.5625 -5.046875 C 6 -4.828125 6.347656 -4.523438 6.609375 -4.140625 C 6.867188 -3.765625 7 -3.320312 7 -2.8125 L 6.984375 -2.3125 L 1.953125 -2.3125 C 2.046875 -1.863281 2.304688 -1.503906 2.734375 -1.234375 C 3.171875 -0.972656 3.710938 -0.84375 4.359375 -0.84375 C 4.828125 -0.84375 5.21875 -0.910156 5.53125 -1.046875 C 5.84375 -1.191406 6.097656 -1.328125 6.296875 -1.453125 Z M 4.09375 -4.421875 C 3.570312 -4.421875 3.117188 -4.320312 2.734375 -4.125 C 2.347656 -3.9375 2.097656 -3.609375 1.984375 -3.140625 L 5.953125 -3.140625 L 5.953125 -3.265625 C 5.921875 -3.492188 5.8125 -3.691406 5.625 -3.859375 C 5.445312 -4.035156 5.222656 -4.171875 4.953125 -4.265625 C 4.679688 -4.367188 4.394531 -4.421875 4.09375 -4.421875 Z M 4.09375 -4.421875" transform="translate(208.517 138.75)"/></g></g></g><g fill="#737373"><g><g><path d="M 4.734375 -5.359375 C 5.253906 -5.359375 5.679688 -5.257812 6.015625 -5.0625 C 6.347656 -4.863281 6.59375 -4.59375 6.75 -4.25 C 6.90625 -3.914062 6.984375 -3.546875 6.984375 -3.140625 L 6.984375 0 L 5.953125 0 L 5.953125 -3 C 5.953125 -3.414062 5.816406 -3.753906 5.546875 -4.015625 C 5.273438 -4.285156 4.910156 -4.414062 4.453125 -4.40625 C 4.117188 -4.40625 3.816406 -4.328125 3.546875 -4.171875 C 3.285156 -4.023438 3.078125 -3.835938 2.921875 -3.609375 C 2.773438 -3.378906 2.703125 -3.148438 2.703125 -2.921875 L 2.703125 0 L 1.671875 0 L 1.671875 -5.25 L 2.703125 -5.25 L 2.703125 -4.328125 C 2.921875 -4.597656 3.203125 -4.835938 3.546875 -5.046875 C 3.890625 -5.253906 4.285156 -5.359375 4.734375 -5.359375 Z M 4.734375 -5.359375" transform="translate(216.584 138.75)"/></g></g></g><g fill="#737373"><g><g><path d="M 3.40625 0 L 2.375 0 L 2.375 -4.25 L 0.90625 -4.25 L 0.90625 -5.25 L 2.375 -5.25 L 2.375 -6.78125 L 3.40625 -6.78125 L 3.40625 -5.25 L 5.140625 -5.25 L 5.140625 -4.25 L 3.40625 -4.25 Z M 3.40625 0" transform="translate(225.22 138.75)"/></g></g></g><g fill="#737373"><g><g><path d="M 5.3125 -3.828125 C 5.0625 -4.023438 4.765625 -4.1875 4.421875 -4.3125 C 4.078125 -4.445312 3.75 -4.515625 3.4375 -4.515625 C 3.25 -4.515625 3.046875 -4.492188 2.828125 -4.453125 C 2.617188 -4.421875 2.4375 -4.359375 2.28125 -4.265625 C 2.132812 -4.179688 2.0625 -4.050781 2.0625 -3.875 C 2.0625 -3.726562 2.132812 -3.601562 2.28125 -3.5 C 2.425781 -3.394531 2.613281 -3.3125 2.84375 -3.25 C 3.082031 -3.1875 3.34375 -3.128906 3.625 -3.078125 C 3.90625 -3.035156 4.175781 -2.976562 4.4375 -2.90625 C 4.707031 -2.832031 4.953125 -2.738281 5.171875 -2.625 C 5.398438 -2.507812 5.578125 -2.363281 5.703125 -2.1875 C 5.835938 -2.019531 5.90625 -1.8125 5.90625 -1.5625 C 5.90625 -1.195312 5.796875 -0.890625 5.578125 -0.640625 C 5.367188 -0.398438 5.085938 -0.21875 4.734375 -0.09375 C 4.378906 0.03125 3.988281 0.09375 3.5625 0.09375 C 3.03125 0.09375 2.535156 0.0195312 2.078125 -0.125 C 1.617188 -0.269531 1.226562 -0.519531 0.90625 -0.875 L 1.609375 -1.515625 C 1.835938 -1.273438 2.109375 -1.085938 2.421875 -0.953125 C 2.742188 -0.828125 3.109375 -0.765625 3.515625 -0.765625 C 3.710938 -0.765625 3.914062 -0.78125 4.125 -0.8125 C 4.34375 -0.851562 4.523438 -0.921875 4.671875 -1.015625 C 4.816406 -1.109375 4.890625 -1.242188 4.890625 -1.421875 C 4.890625 -1.578125 4.816406 -1.695312 4.671875 -1.78125 C 4.523438 -1.875 4.328125 -1.945312 4.078125 -2 C 3.835938 -2.0625 3.578125 -2.117188 3.296875 -2.171875 C 2.898438 -2.253906 2.53125 -2.347656 2.1875 -2.453125 C 1.84375 -2.554688 1.566406 -2.710938 1.359375 -2.921875 C 1.148438 -3.140625 1.046875 -3.445312 1.046875 -3.84375 C 1.046875 -4.15625 1.148438 -4.421875 1.359375 -4.640625 C 1.578125 -4.867188 1.863281 -5.046875 2.21875 -5.171875 C 2.582031 -5.296875 2.984375 -5.359375 3.421875 -5.359375 C 3.691406 -5.359375 3.976562 -5.328125 4.28125 -5.265625 C 4.59375 -5.210938 4.882812 -5.125 5.15625 -5 C 5.4375 -4.875 5.675781 -4.710938 5.875 -4.515625 Z M 5.3125 -3.828125" transform="translate(231.398 138.75)"/></g></g></g><g fill="#737373"><g><g><path d="M 2.15625 0.109375 C 1.851562 0.109375 1.625 0.0390625 1.46875 -0.09375 C 1.320312 -0.226562 1.25 -0.410156 1.25 -0.640625 C 1.25 -0.835938 1.320312 -1.007812 1.46875 -1.15625 C 1.625 -1.3125 1.851562 -1.390625 2.15625 -1.390625 C 2.46875 -1.390625 2.695312 -1.320312 2.84375 -1.1875 C 3 -1.050781 3.078125 -0.867188 3.078125 -0.640625 C 3.078125 -0.453125 3 -0.28125 2.84375 -0.125 C 2.695312 0.03125 2.46875 0.109375 2.15625 0.109375 Z M 2.15625 0.109375" transform="translate(238.226 138.75)"/></g></g></g><g fill="#737373"><g><g><path d="M 1.515625 0 L 1.515625 -7 L 6.828125 -7 L 6.828125 -5.953125 L 2.59375 -5.953125 L 2.59375 -3.953125 L 6.375 -3.953125 L 6.375 -2.921875 L 2.59375 -2.921875 L 2.59375 0 Z M 1.515625 0" transform="translate(246.662 138.75)"/></g></g></g><g fill="#737373"><g><g><path d="M 2.203125 -6.25 C 1.960938 -6.25 1.785156 -6.304688 1.671875 -6.421875 C 1.566406 -6.546875 1.515625 -6.707031 1.515625 -6.90625 C 1.515625 -7.070312 1.566406 -7.21875 1.671875 -7.34375 C 1.785156 -7.476562 1.960938 -7.546875 2.203125 -7.546875 C 2.441406 -7.546875 2.617188 -7.484375 2.734375 -7.359375 C 2.847656 -7.242188 2.90625 -7.09375 2.90625 -6.90625 C 2.90625 -6.738281 2.847656 -6.585938 2.734375 -6.453125 C 2.617188 -6.316406 2.441406 -6.25 2.203125 -6.25 Z M 2.5625 0 L 1.546875 0 L 1.546875 -5.25 L 2.5625 -5.25 Z M 2.5625 0" transform="translate(254.56 138.75)"/></g></g></g><g fill="#737373"><g><g><path d="M 4.734375 -5.359375 C 5.253906 -5.359375 5.679688 -5.257812 6.015625 -5.0625 C 6.347656 -4.863281 6.59375 -4.59375 6.75 -4.25 C 6.90625 -3.914062 6.984375 -3.546875 6.984375 -3.140625 L 6.984375 0 L 5.953125 0 L 5.953125 -3 C 5.953125 -3.414062 5.816406 -3.753906 5.546875 -4.015625 C 5.273438 -4.285156 4.910156 -4.414062 4.453125 -4.40625 C 4.117188 -4.40625 3.816406 -4.328125 3.546875 -4.171875 C 3.285156 -4.023438 3.078125 -3.835938 2.921875 -3.609375 C 2.773438 -3.378906 2.703125 -3.148438 2.703125 -2.921875 L 2.703125 0 L 1.671875 0 L 1.671875 -5.25 L 2.703125 -5.25 L 2.703125 -4.328125 C 2.921875 -4.597656 3.203125 -4.835938 3.546875 -5.046875 C 3.890625 -5.253906 4.285156 -5.359375 4.734375 -5.359375 Z M 4.734375 -5.359375" transform="translate(258.997 138.75)"/></g></g></g><g fill="#737373"><g><g><path d="M 7.046875 -7.40625 L 7.046875 0 L 6.015625 0 L 6.015625 -0.84375 C 5.890625 -0.6875 5.710938 -0.535156 5.484375 -0.390625 C 5.265625 -0.253906 5.007812 -0.140625 4.71875 -0.046875 C 4.4375 0.046875 4.132812 0.09375 3.8125 0.09375 C 3.238281 0.09375 2.734375 -0.0195312 2.296875 -0.25 C 1.859375 -0.476562 1.515625 -0.800781 1.265625 -1.21875 C 1.023438 -1.632812 0.90625 -2.101562 0.90625 -2.625 C 0.90625 -3.164062 1.03125 -3.640625 1.28125 -4.046875 C 1.539062 -4.453125 1.890625 -4.769531 2.328125 -5 C 2.765625 -5.238281 3.269531 -5.359375 3.84375 -5.359375 C 4.320312 -5.359375 4.75 -5.273438 5.125 -5.109375 C 5.507812 -4.941406 5.804688 -4.75 6.015625 -4.53125 L 6.015625 -7.40625 Z M 4.015625 -0.828125 C 4.421875 -0.828125 4.773438 -0.90625 5.078125 -1.0625 C 5.390625 -1.21875 5.628906 -1.429688 5.796875 -1.703125 C 5.972656 -1.972656 6.0625 -2.28125 6.0625 -2.625 C 6.0625 -2.96875 5.972656 -3.273438 5.796875 -3.546875 C 5.628906 -3.816406 5.390625 -4.03125 5.078125 -4.1875 C 4.773438 -4.351562 4.421875 -4.4375 4.015625 -4.4375 C 3.609375 -4.4375 3.25 -4.351562 2.9375 -4.1875 C 2.632812 -4.03125 2.394531 -3.816406 2.21875 -3.546875 C 2.039062 -3.273438 1.953125 -2.96875 1.953125 -2.625 C 1.953125 -2.28125 2.039062 -1.972656 2.21875 -1.703125 C 2.394531 -1.429688 2.632812 -1.21875 2.9375 -1.0625 C 3.25 -0.90625 3.609375 -0.828125 4.015625 -0.828125 Z M 4.015625 -0.828125" transform="translate(267.634 138.75)"/></g></g></g><g fill="#737373"><g><g><path d="M 11.078125 -7 L 8.4375 0 L 7.6875 0 L 5.796875 -4.390625 L 3.921875 0 L 3.125 0 L 0.6875 -7 L 1.84375 -7 L 3.28125 -2.796875 C 3.34375 -2.609375 3.398438 -2.414062 3.453125 -2.21875 C 3.515625 -2.03125 3.570312 -1.847656 3.625 -1.671875 C 3.6875 -1.847656 3.753906 -2.03125 3.828125 -2.21875 C 3.898438 -2.414062 3.976562 -2.609375 4.0625 -2.796875 L 5.34375 -5.796875 L 6.34375 -5.796875 L 7.59375 -2.8125 C 7.664062 -2.613281 7.738281 -2.421875 7.8125 -2.234375 C 7.894531 -2.046875 7.960938 -1.863281 8.015625 -1.6875 C 8.066406 -1.863281 8.125 -2.050781 8.1875 -2.25 C 8.25 -2.445312 8.316406 -2.644531 8.390625 -2.84375 L 9.921875 -7 Z M 11.078125 -7" transform="translate(280.189 138.75)"/></g></g></g><g fill="#737373"><g><g><path d="M 6.765625 -0.6875 C 6.578125 -0.550781 6.347656 -0.421875 6.078125 -0.296875 C 5.804688 -0.179688 5.507812 -0.0859375 5.1875 -0.015625 C 4.863281 0.0546875 4.53125 0.09375 4.1875 0.09375 C 3.539062 0.09375 2.96875 -0.0195312 2.46875 -0.25 C 1.976562 -0.476562 1.59375 -0.789062 1.3125 -1.1875 C 1.039062 -1.59375 0.90625 -2.050781 0.90625 -2.5625 C 0.90625 -3.15625 1.050781 -3.660156 1.34375 -4.078125 C 1.644531 -4.492188 2.035156 -4.8125 2.515625 -5.03125 C 2.992188 -5.257812 3.519531 -5.375 4.09375 -5.375 C 4.632812 -5.375 5.125 -5.265625 5.5625 -5.046875 C 6 -4.828125 6.347656 -4.523438 6.609375 -4.140625 C 6.867188 -3.765625 7 -3.320312 7 -2.8125 L 6.984375 -2.3125 L 1.953125 -2.3125 C 2.046875 -1.863281 2.304688 -1.503906 2.734375 -1.234375 C 3.171875 -0.972656 3.710938 -0.84375 4.359375 -0.84375 C 4.828125 -0.84375 5.21875 -0.910156 5.53125 -1.046875 C 5.84375 -1.191406 6.097656 -1.328125 6.296875 -1.453125 Z M 4.09375 -4.421875 C 3.570312 -4.421875 3.117188 -4.320312 2.734375 -4.125 C 2.347656 -3.9375 2.097656 -3.609375 1.984375 -3.140625 L 5.953125 -3.140625 L 5.953125 -3.265625 C 5.921875 -3.492188 5.8125 -3.691406 5.625 -3.859375 C 5.445312 -4.035156 5.222656 -4.171875 4.953125 -4.265625 C 4.679688 -4.367188 4.394531 -4.421875 4.09375 -4.421875 Z M 4.09375 -4.421875" transform="translate(291.934 138.75)"/></g></g></g><g fill="#737373"><g><g><path d="M 7.046875 -5.25 L 7.046875 0 L 6 0 L 6 -0.875 C 5.875 -0.71875 5.695312 -0.5625 5.46875 -0.40625 C 5.25 -0.257812 4.992188 -0.140625 4.703125 -0.046875 C 4.410156 0.046875 4.097656 0.09375 3.765625 0.09375 C 3.191406 0.09375 2.691406 -0.0195312 2.265625 -0.25 C 1.835938 -0.476562 1.503906 -0.800781 1.265625 -1.21875 C 1.023438 -1.632812 0.90625 -2.101562 0.90625 -2.625 C 0.90625 -3.164062 1.03125 -3.640625 1.28125 -4.046875 C 1.53125 -4.453125 1.875 -4.769531 2.3125 -5 C 2.757812 -5.238281 3.273438 -5.359375 3.859375 -5.359375 C 4.335938 -5.359375 4.765625 -5.269531 5.140625 -5.09375 C 5.515625 -4.925781 5.800781 -4.734375 6 -4.515625 L 6 -5.25 Z M 4 -0.84375 C 4.40625 -0.84375 4.757812 -0.921875 5.0625 -1.078125 C 5.375 -1.234375 5.613281 -1.445312 5.78125 -1.71875 C 5.957031 -1.988281 6.046875 -2.289062 6.046875 -2.625 C 6.046875 -2.96875 5.957031 -3.269531 5.78125 -3.53125 C 5.613281 -3.800781 5.375 -4.015625 5.0625 -4.171875 C 4.757812 -4.328125 4.40625 -4.40625 4 -4.40625 C 3.601562 -4.40625 3.25 -4.328125 2.9375 -4.171875 C 2.632812 -4.015625 2.394531 -3.800781 2.21875 -3.53125 C 2.039062 -3.269531 1.953125 -2.96875 1.953125 -2.625 C 1.953125 -2.289062 2.039062 -1.988281 2.21875 -1.71875 C 2.394531 -1.445312 2.632812 -1.234375 2.9375 -1.078125 C 3.25 -0.921875 3.601562 -0.84375 4 -0.84375 Z M 4 -0.84375" transform="translate(300.001 138.75)"/></g></g></g><g fill="#737373"><g><g><path d="M 1.59375 0 L 1.59375 -7.40625 L 2.625 -7.40625 L 2.625 0 Z M 1.59375 0" transform="translate(308.578 138.75)"/></g></g></g><g fill="#737373"><g><g><path d="M 3.40625 0 L 2.375 0 L 2.375 -4.25 L 0.90625 -4.25 L 0.90625 -5.25 L 2.375 -5.25 L 2.375 -6.78125 L 3.40625 -6.78125 L 3.40625 -5.25 L 5.140625 -5.25 L 5.140625 -4.25 L 3.40625 -4.25 Z M 3.40625 0" transform="translate(312.826 138.75)"/></g></g></g><g fill="#737373"><g><g><path d="M 4.796875 -5.359375 C 5.304688 -5.359375 5.722656 -5.257812 6.046875 -5.0625 C 6.367188 -4.863281 6.601562 -4.59375 6.75 -4.25 C 6.90625 -3.914062 6.984375 -3.546875 6.984375 -3.140625 L 6.984375 0 L 5.953125 0 L 5.953125 -3 C 5.953125 -3.414062 5.816406 -3.757812 5.546875 -4.03125 C 5.273438 -4.300781 4.910156 -4.4375 4.453125 -4.4375 C 4.117188 -4.4375 3.816406 -4.351562 3.546875 -4.1875 C 3.285156 -4.03125 3.078125 -3.835938 2.921875 -3.609375 C 2.773438 -3.378906 2.703125 -3.148438 2.703125 -2.921875 L 2.703125 0 L 1.671875 0 L 1.671875 -7.40625 L 2.703125 -7.40625 L 2.703125 -4.390625 C 2.910156 -4.648438 3.203125 -4.875 3.578125 -5.0625 C 3.953125 -5.257812 4.359375 -5.359375 4.796875 -5.359375 Z M 4.796875 -5.359375" transform="translate(319.004 138.75)"/></g></g></g><g fill="#737373"><g><g><path d="M 2.15625 0.109375 C 1.851562 0.109375 1.625 0.0390625 1.46875 -0.09375 C 1.320312 -0.226562 1.25 -0.410156 1.25 -0.640625 C 1.25 -0.835938 1.320312 -1.007812 1.46875 -1.15625 C 1.625 -1.3125 1.851562 -1.390625 2.15625 -1.390625 C 2.46875 -1.390625 2.695312 -1.320312 2.84375 -1.1875 C 3 -1.050781 3.078125 -0.867188 3.078125 -0.640625 C 3.078125 -0.453125 3 -0.28125 2.84375 -0.125 C 2.695312 0.03125 2.46875 0.109375 2.15625 0.109375 Z M 2.15625 0.109375" transform="translate(327.64 138.75)"/></g></g></g></svg>