<svg xmlns="http://www.w3.org/2000/svg" version="1.0" viewBox="7.13 141.8 360.65 69.4"><defs><clipPath id="a"><path d="M 14.785156 171.292969 L 36.644531 171.292969 L 36.644531 211.199219 L 14.785156 211.199219 Z M 14.785156 171.292969"/></clipPath></defs><path fill="#D0EAF2" d="M 43.804688 167.445312 C 46.078125 167.445312 48.375 166.792969 50.410156 165.425781 C 55.917969 161.734375 57.417969 154.230469 53.761719 148.664062 C 51.457031 145.160156 47.65625 143.261719 43.78125 143.261719 C 41.507812 143.261719 39.210938 143.914062 37.175781 145.277344 C 31.671875 148.972656 30.171875 156.476562 33.824219 162.039062 C 36.128906 165.546875 39.929688 167.445312 43.804688 167.445312"/><path fill="#29242C" d="M 50.003906 164.808594 C 55.171875 161.339844 56.582031 154.296875 53.148438 149.078125 C 49.71875 143.855469 42.75 142.429688 37.582031 145.898438 C 32.414062 149.363281 31.007812 156.40625 34.4375 161.628906 C 37.867188 166.851562 44.835938 168.273438 50.003906 164.808594 Z M 51.195312 166.617188 C 45.035156 170.75 36.734375 169.050781 32.644531 162.832031 C 28.558594 156.609375 30.238281 148.214844 36.394531 144.085938 C 42.550781 139.957031 50.855469 141.652344 54.941406 147.875 C 59.027344 154.097656 57.351562 162.488281 51.195312 166.617188"/><path fill="#29242C" d="M 32.996094 171.308594 L 35.796875 172.914062 L 39.292969 166.675781 L 36.492188 165.070312 L 32.996094 171.308594"/><path fill="#A7A5A6" d="M 32.164062 170.832031 L 36.628906 173.390625 L 38.191406 170.605469 L 33.726562 168.046875 L 32.164062 170.832031"/><path fill="#B42026" d="M 32.164062 170.832031 L 36.628906 173.390625 L 21.765625 199.894531 L 17.300781 197.335938 L 32.164062 170.832031"/><path fill="#8A1D22" d="M 19.53125 198.613281 L 34.394531 172.109375 L 32.164062 170.832031 L 17.300781 197.335938 L 19.53125 198.613281"/><path fill="#8F8D8D" d="M 34.394531 172.109375 L 35.957031 169.324219 L 33.726562 168.046875 L 32.164062 170.832031 L 34.394531 172.109375"/><g clip-path="url(#a)"><path fill="#F9AA78" d="M 19.484375 194.5625 L 17.816406 186.621094 C 17.816406 186.621094 16.996094 184.207031 16.972656 183.363281 C 16.929688 181.871094 18.714844 180.113281 18.75 180.84375 C 18.816406 182.125 19.546875 183.296875 19.546875 183.296875 C 19.546875 183.296875 19.007812 181.503906 19.175781 180.257812 C 19.394531 178.664062 21.535156 176.480469 21.269531 177.492188 C 20.5625 180.207031 22.0625 181.429688 22.0625 181.429688 C 21.441406 180.261719 21.304688 177.925781 21.832031 176.878906 C 22.8125 174.9375 24.726562 174.40625 25.605469 174.410156 C 24.933594 175.664062 24.191406 177.582031 24.167969 178.105469 C 24.113281 179.28125 24.707031 180.246094 24.707031 180.246094 L 24.503906 178.273438 C 24.503906 178.273438 25.433594 175.027344 26.363281 174.097656 C 27.292969 173.167969 30.457031 172.148438 31.828125 171.429688 C 30.542969 173.722656 29.746094 175.140625 29.152344 176.195312 C 28.929688 176.367188 28.703125 176.824219 28.648438 176.933594 C 28.371094 177.507812 30.191406 182.488281 30.871094 182.550781 C 31.121094 182.574219 32.195312 182.101562 32.65625 180.476562 C 33.589844 178.804688 34.28125 177.574219 34.917969 176.4375 C 34.9375 178.863281 37.160156 184.40625 36.402344 186.257812 C 35.460938 188.5625 28.414062 195.46875 27.828125 197.390625 C 27.757812 197.605469 26.964844 211.199219 26.964844 211.199219 L 14.800781 211.199219 L 19.484375 194.5625"/></g><g fill="#0058CD"><g><g><path d="M 4.828125 -6.078125 C 5.835938 -4.941406 6.890625 -4.054688 7.984375 -3.421875 C 9.085938 -2.785156 10.445312 -2.46875 12.0625 -2.46875 C 12.914062 -2.46875 13.738281 -2.582031 14.53125 -2.8125 C 15.320312 -3.039062 15.972656 -3.378906 16.484375 -3.828125 C 17.003906 -4.273438 17.265625 -4.835938 17.265625 -5.515625 C 17.265625 -6.460938 16.742188 -7.132812 15.703125 -7.53125 C 14.671875 -7.9375 13.226562 -8.269531 11.375 -8.53125 C 9.0625 -8.875 7.226562 -9.5 5.875 -10.40625 C 4.519531 -11.3125 3.84375 -12.648438 3.84375 -14.421875 C 3.84375 -15.609375 4.207031 -16.632812 4.9375 -17.5 C 5.664062 -18.363281 6.644531 -19.023438 7.875 -19.484375 C 9.101562 -19.953125 10.46875 -20.1875 11.96875 -20.1875 C 13.832031 -20.1875 15.4375 -19.882812 16.78125 -19.28125 C 18.125 -18.675781 19.191406 -17.8125 19.984375 -16.6875 L 17.890625 -14.46875 C 17.222656 -15.34375 16.382812 -16.054688 15.375 -16.609375 C 14.375 -17.160156 13.210938 -17.4375 11.890625 -17.4375 C 10.523438 -17.4375 9.378906 -17.191406 8.453125 -16.703125 C 7.535156 -16.222656 7.078125 -15.546875 7.078125 -14.671875 C 7.078125 -13.992188 7.300781 -13.445312 7.75 -13.03125 C 8.195312 -12.625 8.820312 -12.300781 9.625 -12.0625 C 10.425781 -11.832031 11.367188 -11.640625 12.453125 -11.484375 C 13.492188 -11.335938 14.492188 -11.144531 15.453125 -10.90625 C 16.410156 -10.664062 17.269531 -10.34375 18.03125 -9.9375 C 18.789062 -9.53125 19.390625 -9.015625 19.828125 -8.390625 C 20.273438 -7.765625 20.5 -6.988281 20.5 -6.0625 C 20.5 -4.769531 20.148438 -3.648438 19.453125 -2.703125 C 18.753906 -1.753906 17.757812 -1.019531 16.46875 -0.5 C 15.175781 0.0195312 13.660156 0.28125 11.921875 0.28125 C 10.035156 0.28125 8.332031 -0.0195312 6.8125 -0.625 C 5.300781 -1.226562 3.976562 -2.210938 2.84375 -3.578125 Z M 4.828125 -6.078125" transform="translate(4.316 163.628)"/></g></g></g><g fill="#0058CD"><g><g><path d="M 4.328125 -19.90625 L 19.390625 -19.90625 L 19.390625 -16.953125 L 7.390625 -16.953125 L 7.390625 -11.6875 L 17.828125 -11.6875 L 17.828125 -8.734375 L 7.390625 -8.734375 L 7.390625 -2.953125 L 19.390625 -2.953125 L 19.390625 0 L 4.328125 0 Z M 4.328125 -19.90625" transform="translate(59.605 163.628)"/></g></g></g><g fill="#0058CD"><g><g><path d="M 21.921875 -2.78125 C 21.429688 -2.332031 20.769531 -1.867188 19.9375 -1.390625 C 19.101562 -0.921875 18.140625 -0.523438 17.046875 -0.203125 C 15.953125 0.117188 14.800781 0.28125 13.59375 0.28125 C 12.070312 0.28125 10.65625 0.0390625 9.34375 -0.4375 C 8.039062 -0.925781 6.898438 -1.613281 5.921875 -2.5 C 4.953125 -3.394531 4.191406 -4.472656 3.640625 -5.734375 C 3.085938 -6.992188 2.8125 -8.398438 2.8125 -9.953125 C 2.8125 -11.410156 3.097656 -12.753906 3.671875 -13.984375 C 4.253906 -15.222656 5.046875 -16.296875 6.046875 -17.203125 C 7.054688 -18.109375 8.210938 -18.8125 9.515625 -19.3125 C 10.828125 -19.820312 12.210938 -20.078125 13.671875 -20.078125 C 14.890625 -20.078125 16.039062 -19.910156 17.125 -19.578125 C 18.21875 -19.242188 19.195312 -18.820312 20.0625 -18.3125 C 20.925781 -17.800781 21.625 -17.269531 22.15625 -16.71875 L 20.25 -14.28125 C 19.332031 -15.070312 18.320312 -15.726562 17.21875 -16.25 C 16.113281 -16.769531 14.878906 -17.03125 13.515625 -17.03125 C 12.546875 -17.03125 11.609375 -16.867188 10.703125 -16.546875 C 9.804688 -16.222656 9 -15.753906 8.28125 -15.140625 C 7.570312 -14.523438 7.003906 -13.78125 6.578125 -12.90625 C 6.148438 -12.039062 5.9375 -11.054688 5.9375 -9.953125 C 5.9375 -8.359375 6.3125 -7.023438 7.0625 -5.953125 C 7.8125 -4.878906 8.789062 -4.070312 10 -3.53125 C 11.21875 -3 12.53125 -2.734375 13.9375 -2.734375 C 14.914062 -2.734375 15.800781 -2.863281 16.59375 -3.125 C 17.394531 -3.394531 18.109375 -3.726562 18.734375 -4.125 C 19.359375 -4.519531 19.921875 -4.914062 20.421875 -5.3125 Z M 21.921875 -2.78125" transform="translate(85.534 163.628)"/></g></g></g><g fill="#0058CD"><g><g><path d="M 9.015625 0 L 9.015625 -16.953125 L 2.1875 -16.953125 L 2.1875 -19.90625 L 19.109375 -19.90625 L 19.109375 -16.953125 L 12.09375 -16.953125 L 12.09375 0 Z M 9.015625 0" transform="translate(113.168 163.628)"/></g></g></g><g fill="#0058CD"><g><g><path d="M 25.25 -9.953125 C 25.25 -8.515625 24.972656 -7.171875 24.421875 -5.921875 C 23.878906 -4.679688 23.101562 -3.597656 22.09375 -2.671875 C 21.09375 -1.742188 19.910156 -1.019531 18.546875 -0.5 C 17.179688 0.0195312 15.671875 0.28125 14.015625 0.28125 C 12.390625 0.28125 10.890625 0.0195312 9.515625 -0.5 C 8.140625 -1.019531 6.953125 -1.742188 5.953125 -2.671875 C 4.960938 -3.597656 4.191406 -4.679688 3.640625 -5.921875 C 3.085938 -7.171875 2.8125 -8.515625 2.8125 -9.953125 C 2.8125 -11.390625 3.085938 -12.726562 3.640625 -13.96875 C 4.191406 -15.21875 4.960938 -16.304688 5.953125 -17.234375 C 6.953125 -18.160156 8.140625 -18.882812 9.515625 -19.40625 C 10.890625 -19.925781 12.390625 -20.1875 14.015625 -20.1875 C 15.671875 -20.1875 17.179688 -19.925781 18.546875 -19.40625 C 19.910156 -18.882812 21.09375 -18.160156 22.09375 -17.234375 C 23.101562 -16.304688 23.878906 -15.21875 24.421875 -13.96875 C 24.972656 -12.726562 25.25 -11.390625 25.25 -9.953125 Z M 22.125 -9.953125 C 22.125 -11.335938 21.773438 -12.570312 21.078125 -13.65625 C 20.390625 -14.75 19.429688 -15.613281 18.203125 -16.25 C 16.984375 -16.882812 15.585938 -17.203125 14.015625 -17.203125 C 12.421875 -17.203125 11.015625 -16.882812 9.796875 -16.25 C 8.585938 -15.613281 7.640625 -14.75 6.953125 -13.65625 C 6.273438 -12.570312 5.9375 -11.335938 5.9375 -9.953125 C 5.9375 -8.566406 6.273438 -7.328125 6.953125 -6.234375 C 7.640625 -5.148438 8.585938 -4.289062 9.796875 -3.65625 C 11.015625 -3.019531 12.421875 -2.703125 14.015625 -2.703125 C 15.585938 -2.703125 16.984375 -3.019531 18.203125 -3.65625 C 19.429688 -4.289062 20.390625 -5.15625 21.078125 -6.25 C 21.773438 -7.351562 22.125 -8.585938 22.125 -9.953125 Z M 22.125 -9.953125" transform="translate(137.305 163.628)"/></g></g></g><g fill="#0058CD"><g><g><path d="M 21.21875 -13.703125 C 21.21875 -12.359375 20.800781 -11.148438 19.96875 -10.078125 C 19.144531 -9.003906 18.097656 -8.242188 16.828125 -7.796875 L 22.234375 0.03125 L 18.421875 0 L 13.359375 -7.390625 L 7.390625 -7.390625 L 7.390625 0 L 4.328125 0 L 4.328125 -19.90625 L 14.8125 -19.90625 C 15.9375 -19.90625 16.976562 -19.640625 17.9375 -19.109375 C 18.90625 -18.578125 19.691406 -17.847656 20.296875 -16.921875 C 20.910156 -15.992188 21.21875 -14.921875 21.21875 -13.703125 Z M 14.078125 -16.953125 L 7.390625 -16.953125 L 7.390625 -10.34375 L 14.359375 -10.34375 C 15.046875 -10.34375 15.660156 -10.5 16.203125 -10.8125 C 16.753906 -11.132812 17.1875 -11.550781 17.5 -12.0625 C 17.8125 -12.570312 17.96875 -13.117188 17.96875 -13.703125 C 17.96875 -14.328125 17.789062 -14.882812 17.4375 -15.375 C 17.09375 -15.875 16.617188 -16.257812 16.015625 -16.53125 C 15.421875 -16.8125 14.773438 -16.953125 14.078125 -16.953125 Z M 14.078125 -16.953125" transform="translate(168.208 163.628)"/></g></g></g><g fill="#737373"><g><g><path d="M 9.015625 0 L 9.015625 -16.953125 L 2.1875 -16.953125 L 2.1875 -19.90625 L 19.109375 -19.90625 L 19.109375 -16.953125 L 12.09375 -16.953125 L 12.09375 0 Z M 9.015625 0" transform="translate(211.07 163.628)"/></g></g></g><g fill="#737373"><g><g><path d="M 21.21875 -13.703125 C 21.21875 -12.359375 20.800781 -11.148438 19.96875 -10.078125 C 19.144531 -9.003906 18.097656 -8.242188 16.828125 -7.796875 L 22.234375 0.03125 L 18.421875 0 L 13.359375 -7.390625 L 7.390625 -7.390625 L 7.390625 0 L 4.328125 0 L 4.328125 -19.90625 L 14.8125 -19.90625 C 15.9375 -19.90625 16.976562 -19.640625 17.9375 -19.109375 C 18.90625 -18.578125 19.691406 -17.847656 20.296875 -16.921875 C 20.910156 -15.992188 21.21875 -14.921875 21.21875 -13.703125 Z M 14.078125 -16.953125 L 7.390625 -16.953125 L 7.390625 -10.34375 L 14.359375 -10.34375 C 15.046875 -10.34375 15.660156 -10.5 16.203125 -10.8125 C 16.753906 -11.132812 17.1875 -11.550781 17.5 -12.0625 C 17.8125 -12.570312 17.96875 -13.117188 17.96875 -13.703125 C 17.96875 -14.328125 17.789062 -14.882812 17.4375 -15.375 C 17.09375 -15.875 16.617188 -16.257812 16.015625 -16.53125 C 15.421875 -16.8125 14.773438 -16.953125 14.078125 -16.953125 Z M 14.078125 -16.953125" transform="translate(235.207 163.628)"/></g></g></g><g fill="#737373"><g><g><path d="M 19.9375 0 L 17.796875 -4.78125 L 7.28125 -4.78125 L 5.125 0 L 1.9375 0 L 10.921875 -19.90625 L 14.359375 -19.90625 L 23.296875 0 Z M 11 -12.96875 L 8.609375 -7.734375 L 16.46875 -7.734375 L 14.015625 -13.078125 C 13.773438 -13.679688 13.53125 -14.273438 13.28125 -14.859375 C 13.03125 -15.453125 12.785156 -16.082031 12.546875 -16.75 C 12.273438 -16.0625 12.015625 -15.410156 11.765625 -14.796875 C 11.523438 -14.179688 11.269531 -13.570312 11 -12.96875 Z M 11 -12.96875" transform="translate(263.552 163.628)"/></g></g></g><g fill="#737373"><g><g><path d="M 13.5625 -19.90625 C 15.289062 -19.90625 16.8125 -19.644531 18.125 -19.125 C 19.445312 -18.601562 20.546875 -17.878906 21.421875 -16.953125 C 22.304688 -16.035156 22.972656 -14.972656 23.421875 -13.765625 C 23.867188 -12.566406 24.09375 -11.296875 24.09375 -9.953125 C 24.09375 -8.128906 23.691406 -6.460938 22.890625 -4.953125 C 22.097656 -3.453125 20.921875 -2.25 19.359375 -1.34375 C 17.804688 -0.445312 15.875 0 13.5625 0 L 4.328125 0 L 4.328125 -19.90625 Z M 13.421875 -2.953125 C 15.160156 -2.953125 16.578125 -3.265625 17.671875 -3.890625 C 18.765625 -4.515625 19.566406 -5.359375 20.078125 -6.421875 C 20.585938 -7.484375 20.84375 -8.660156 20.84375 -9.953125 C 20.84375 -11.203125 20.585938 -12.359375 20.078125 -13.421875 C 19.566406 -14.484375 18.765625 -15.335938 17.671875 -15.984375 C 16.578125 -16.628906 15.160156 -16.953125 13.421875 -16.953125 L 7.390625 -16.953125 L 7.390625 -2.953125 Z M 13.421875 -2.953125" transform="translate(291.613 163.628)"/></g></g></g><g fill="#737373"><g><g><path d="M 4.328125 -19.90625 L 19.390625 -19.90625 L 19.390625 -16.953125 L 7.390625 -16.953125 L 7.390625 -11.6875 L 17.828125 -11.6875 L 17.828125 -8.734375 L 7.390625 -8.734375 L 7.390625 -2.953125 L 19.390625 -2.953125 L 19.390625 0 L 4.328125 0 Z M 4.328125 -19.90625" transform="translate(321.35 163.628)"/></g></g></g><g fill="#737373"><g><g><path d="M 4.828125 -6.078125 C 5.835938 -4.941406 6.890625 -4.054688 7.984375 -3.421875 C 9.085938 -2.785156 10.445312 -2.46875 12.0625 -2.46875 C 12.914062 -2.46875 13.738281 -2.582031 14.53125 -2.8125 C 15.320312 -3.039062 15.972656 -3.378906 16.484375 -3.828125 C 17.003906 -4.273438 17.265625 -4.835938 17.265625 -5.515625 C 17.265625 -6.460938 16.742188 -7.132812 15.703125 -7.53125 C 14.671875 -7.9375 13.226562 -8.269531 11.375 -8.53125 C 9.0625 -8.875 7.226562 -9.5 5.875 -10.40625 C 4.519531 -11.3125 3.84375 -12.648438 3.84375 -14.421875 C 3.84375 -15.609375 4.207031 -16.632812 4.9375 -17.5 C 5.664062 -18.363281 6.644531 -19.023438 7.875 -19.484375 C 9.101562 -19.953125 10.46875 -20.1875 11.96875 -20.1875 C 13.832031 -20.1875 15.4375 -19.882812 16.78125 -19.28125 C 18.125 -18.675781 19.191406 -17.8125 19.984375 -16.6875 L 17.890625 -14.46875 C 17.222656 -15.34375 16.382812 -16.054688 15.375 -16.609375 C 14.375 -17.160156 13.210938 -17.4375 11.890625 -17.4375 C 10.523438 -17.4375 9.378906 -17.191406 8.453125 -16.703125 C 7.535156 -16.222656 7.078125 -15.546875 7.078125 -14.671875 C 7.078125 -13.992188 7.300781 -13.445312 7.75 -13.03125 C 8.195312 -12.625 8.820312 -12.300781 9.625 -12.0625 C 10.425781 -11.832031 11.367188 -11.640625 12.453125 -11.484375 C 13.492188 -11.335938 14.492188 -11.144531 15.453125 -10.90625 C 16.410156 -10.664062 17.269531 -10.34375 18.03125 -9.9375 C 18.789062 -9.53125 19.390625 -9.015625 19.828125 -8.390625 C 20.273438 -7.765625 20.5 -6.988281 20.5 -6.0625 C 20.5 -4.769531 20.148438 -3.648438 19.453125 -2.703125 C 18.753906 -1.753906 17.757812 -1.019531 16.46875 -0.5 C 15.175781 0.0195312 13.660156 0.28125 11.921875 0.28125 C 10.035156 0.28125 8.332031 -0.0195312 6.8125 -0.625 C 5.300781 -1.226562 3.976562 -2.210938 2.84375 -3.578125 Z M 4.828125 -6.078125" transform="translate(347.279 163.628)"/></g></g></g></svg>