<svg xmlns="http://www.w3.org/2000/svg" width="450" viewBox="0 0 450 150" height="150" version="1.0"><defs><clipPath id="a"><path d="M 80 4 L 130 4 L 130 53.769531 L 80 53.769531 Z M 80 4"/></clipPath><clipPath id="b"><path d="M 53.203125 14.121094 L 124.375 -9.71875 L 148.210938 61.453125 L 77.039062 85.292969 Z M 53.203125 14.121094"/></clipPath><clipPath id="c"><path d="M 123.992188 -9.59375 L 52.820312 14.25 L 76.65625 85.421875 L 147.828125 61.578125 Z M 123.992188 -9.59375"/></clipPath><clipPath id="d"><path d="M 102.207031 10 L 115.550781 10 L 115.550781 28 L 102.207031 28 Z M 102.207031 10"/></clipPath><clipPath id="e"><path d="M 53.203125 14.121094 L 124.375 -9.71875 L 148.210938 61.453125 L 77.039062 85.292969 Z M 53.203125 14.121094"/></clipPath><clipPath id="f"><path d="M 123.992188 -9.59375 L 52.820312 14.25 L 76.65625 85.421875 L 147.828125 61.578125 Z M 123.992188 -9.59375"/></clipPath><clipPath id="g"><path d="M 86 52.65625 L 95 52.65625 L 95 63 L 86 63 Z M 86 52.65625"/></clipPath><clipPath id="h"><path d="M 53.203125 14.121094 L 124.375 -9.71875 L 148.210938 61.453125 L 77.039062 85.292969 Z M 53.203125 14.121094"/></clipPath><clipPath id="i"><path d="M 123.992188 -9.59375 L 52.820312 14.25 L 76.65625 85.421875 L 147.828125 61.578125 Z M 123.992188 -9.59375"/></clipPath><clipPath id="j"><path d="M 75 59.328125 L 93 59.328125 L 93 83.792969 L 75 83.792969 Z M 75 59.328125"/></clipPath><clipPath id="k"><path d="M 53.203125 14.121094 L 124.375 -9.71875 L 148.210938 61.453125 L 77.039062 85.292969 Z M 53.203125 14.121094"/></clipPath><clipPath id="l"><path d="M 123.992188 -9.59375 L 52.820312 14.25 L 76.65625 85.421875 L 147.828125 61.578125 Z M 123.992188 -9.59375"/></clipPath><clipPath id="m"><path d="M 76.632812 1 L 133 1 L 133 57 L 76.632812 57 Z M 76.632812 1"/></clipPath><clipPath id="n"><path d="M 53.203125 14.121094 L 124.375 -9.71875 L 148.210938 61.453125 L 77.039062 85.292969 Z M 53.203125 14.121094"/></clipPath><clipPath id="o"><path d="M 123.992188 -9.59375 L 52.820312 14.25 L 76.65625 85.421875 L 147.828125 61.578125 Z M 123.992188 -9.59375"/></clipPath><clipPath id="p"><path d="M 107 26 L 116.664062 26 L 116.664062 32.640625 L 107 32.640625 Z M 107 26"/></clipPath><clipPath id="q"><path d="M 53.203125 14.121094 L 124.375 -9.71875 L 148.210938 61.453125 L 77.039062 85.292969 Z M 53.203125 14.121094"/></clipPath><clipPath id="r"><path d="M 123.992188 -9.59375 L 52.820312 14.25 L 76.65625 85.421875 L 147.828125 61.578125 Z M 123.992188 -9.59375"/></clipPath><clipPath id="s"><path d="M 89 30 L 106.65625 30 L 106.65625 44.875 L 89 44.875 Z M 89 30"/></clipPath><clipPath id="t"><path d="M 53.203125 14.121094 L 124.375 -9.71875 L 148.210938 61.453125 L 77.039062 85.292969 Z M 53.203125 14.121094"/></clipPath><clipPath id="u"><path d="M 123.992188 -9.59375 L 52.820312 14.25 L 76.65625 85.421875 L 147.828125 61.578125 Z M 123.992188 -9.59375"/></clipPath><clipPath id="v"><path d="M 104.429688 36 L 112 36 L 112 45.984375 L 104.429688 45.984375 Z M 104.429688 36"/></clipPath><clipPath id="w"><path d="M 53.203125 14.121094 L 124.375 -9.71875 L 148.210938 61.453125 L 77.039062 85.292969 Z M 53.203125 14.121094"/></clipPath><clipPath id="x"><path d="M 123.992188 -9.59375 L 52.820312 14.25 L 76.65625 85.421875 L 147.828125 61.578125 Z M 123.992188 -9.59375"/></clipPath></defs><g clip-path="url(#a)"><g clip-path="url(#b)"><g clip-path="url(#c)"><path fill="#5048E5" d="M 115.617188 7.222656 C 103.574219 1.222656 88.941406 6.121094 82.941406 18.164062 C 76.945312 30.203125 81.847656 44.839844 93.890625 50.832031 C 105.929688 56.835938 120.558594 51.933594 126.558594 39.890625 C 132.558594 27.851562 127.65625 13.21875 115.617188 7.222656 Z M 115.617188 7.222656"/></g></g></g><g clip-path="url(#d)"><g clip-path="url(#e)"><g clip-path="url(#f)"><path fill="#545C66" d="M 102.886719 16.222656 L 102.90625 16.214844 L 106.589844 27.210938 L 115.371094 24.269531 L 111.6875 13.273438 C 110.867188 10.839844 108.242188 9.53125 105.808594 10.34375 C 103.390625 11.15625 102.070312 13.789062 102.886719 16.222656 Z M 102.886719 16.222656"/></g></g></g><g clip-path="url(#g)"><g clip-path="url(#h)"><g clip-path="url(#i)"><path fill="#CCD1D9" d="M 92.335938 53.949219 C 91.644531 53.605469 90.957031 53.234375 90.308594 52.832031 L 86.277344 60.921875 L 90.421875 62.996094 L 94.453125 54.902344 L 94.460938 54.890625 C 93.746094 54.617188 93.042969 54.300781 92.335938 53.949219 Z M 92.335938 53.949219"/></g></g></g><g clip-path="url(#j)"><g clip-path="url(#k)"><g clip-path="url(#l)"><path fill="#656D78" d="M 90.421875 62.996094 L 84.195312 59.882812 L 75.722656 76.898438 C 74.585938 79.195312 75.515625 81.972656 77.808594 83.117188 C 80.097656 84.253906 82.890625 83.320312 84.035156 81.03125 L 92.503906 64.023438 Z M 90.421875 62.996094"/></g></g></g><g clip-path="url(#m)"><g clip-path="url(#n)"><g clip-path="url(#o)"><path fill="#E6E9ED" d="M 94.460938 54.890625 C 107.773438 60.21875 123.171875 54.507812 129.671875 41.441406 C 136.527344 27.679688 130.925781 10.960938 117.167969 4.109375 C 103.40625 -2.746094 86.6875 2.851562 79.832031 16.613281 C 73.320312 29.683594 78.039062 45.417969 90.308594 52.832031 C 90.960938 53.234375 91.648438 53.605469 92.339844 53.949219 C 93.042969 54.300781 93.746094 54.617188 94.460938 54.890625 Z M 115.617188 7.222656 C 127.65625 13.21875 132.558594 27.851562 126.558594 39.890625 C 120.558594 51.933594 105.929688 56.835938 93.890625 50.832031 C 81.847656 44.839844 76.945312 30.203125 82.941406 18.164062 C 88.941406 6.121094 103.570312 1.222656 115.617188 7.222656 Z M 115.617188 7.222656"/></g></g></g><g clip-path="url(#p)"><g clip-path="url(#q)"><g clip-path="url(#r)"><path fill="#545C66" d="M 116.101562 26.472656 L 107.304688 29.417969 C 108.121094 31.851562 110.761719 33.160156 113.179688 32.347656 C 115.609375 31.535156 116.917969 28.90625 116.101562 26.472656 Z M 116.101562 26.472656"/></g></g></g><g clip-path="url(#s)"><g clip-path="url(#t)"><g clip-path="url(#u)"><path fill="#545C66" d="M 92.03125 38.988281 L 92.042969 38.96875 L 102.425781 44.140625 L 106.554688 35.851562 L 96.167969 30.683594 C 93.875 29.535156 91.09375 30.46875 89.949219 32.761719 C 88.808594 35.050781 89.738281 37.84375 92.03125 38.988281 Z M 92.03125 38.988281"/></g></g></g><g clip-path="url(#v)"><g clip-path="url(#w)"><g clip-path="url(#x)"><path fill="#545C66" d="M 108.632812 36.890625 L 104.492188 45.195312 C 106.789062 46.335938 109.578125 45.394531 110.71875 43.109375 C 111.859375 40.816406 110.925781 38.03125 108.632812 36.890625 Z M 108.632812 36.890625"/></g></g></g><path fill="#5048E5" d="M 32.679688 36.097656 C 34.824219 38.523438 37.0625 40.40625 39.40625 41.761719 C 41.742188 43.109375 44.625 43.777344 48.058594 43.777344 C 49.875 43.777344 51.628906 43.535156 53.324219 43.050781 C 55.011719 42.5625 56.402344 41.851562 57.492188 40.910156 C 58.578125 39.964844 59.125 38.757812 59.125 37.296875 C 59.125 35.28125 58.023438 33.851562 55.824219 33.007812 C 53.636719 32.164062 50.558594 31.457031 46.597656 30.886719 C 41.671875 30.15625 37.773438 28.828125 34.886719 26.890625 C 32.003906 24.957031 30.5625 22.113281 30.5625 18.359375 C 30.5625 15.824219 31.335938 13.640625 32.890625 11.808594 C 34.441406 9.96875 36.523438 8.554688 39.144531 7.570312 C 41.773438 6.574219 44.679688 6.074219 47.867188 6.074219 C 51.828125 6.074219 55.238281 6.726562 58.101562 8.019531 C 60.957031 9.308594 63.242188 11.140625 64.945312 13.511719 L 60.464844 18.238281 C 59.046875 16.386719 57.269531 14.875 55.128906 13.703125 C 52.996094 12.535156 50.515625 11.949219 47.691406 11.949219 C 44.78125 11.949219 42.351562 12.464844 40.394531 13.496094 C 38.4375 14.527344 37.460938 15.96875 37.460938 17.820312 C 37.460938 19.269531 37.933594 20.425781 38.882812 21.296875 C 39.832031 22.164062 41.164062 22.855469 42.878906 23.363281 C 44.589844 23.863281 46.601562 24.277344 48.910156 24.597656 C 51.121094 24.921875 53.246094 25.339844 55.285156 25.847656 C 57.324219 26.347656 59.148438 27.03125 60.757812 27.898438 C 62.378906 28.765625 63.660156 29.871094 64.597656 31.199219 C 65.546875 32.519531 66.023438 34.171875 66.023438 36.152344 C 66.023438 38.898438 65.277344 41.277344 63.78125 43.292969 C 62.296875 45.308594 60.1875 46.871094 57.441406 47.984375 C 54.695312 49.09375 51.464844 49.652344 47.746094 49.652344 C 43.757812 49.652344 40.152344 49.007812 36.921875 47.722656 C 33.6875 46.429688 30.859375 44.328125 28.441406 41.414062 Z M 32.679688 36.097656"/><path fill="#5048E5" d="M 149.285156 6.683594 L 181.359375 6.683594 L 181.359375 12.972656 L 155.835938 12.972656 L 155.835938 24.164062 L 178.039062 24.164062 L 178.039062 30.46875 L 155.835938 30.46875 L 155.835938 42.753906 L 181.359375 42.753906 L 181.359375 49.042969 L 149.285156 49.042969 Z M 149.285156 6.683594"/><path fill="#5048E5" d="M 241.9375 43.117188 C 240.894531 44.082031 239.480469 45.066406 237.699219 46.074219 C 235.925781 47.082031 233.878906 47.929688 231.5625 48.625 C 229.246094 49.308594 226.796875 49.652344 224.214844 49.652344 C 220.984375 49.652344 217.976562 49.132812 215.195312 48.105469 C 212.417969 47.074219 209.984375 45.617188 207.898438 43.726562 C 205.824219 41.828125 204.203125 39.539062 203.035156 36.863281 C 201.863281 34.179688 201.28125 31.175781 201.28125 27.863281 C 201.28125 24.761719 201.890625 21.898438 203.121094 19.28125 C 204.347656 16.652344 206.027344 14.371094 208.160156 12.433594 C 210.300781 10.5 212.765625 9.003906 215.542969 7.933594 C 218.332031 6.855469 221.28125 6.320312 224.386719 6.320312 C 226.96875 6.320312 229.417969 6.675781 231.738281 7.378906 C 234.066406 8.085938 236.144531 8.984375 237.976562 10.070312 C 239.816406 11.160156 241.296875 12.292969 242.421875 13.460938 L 238.375 18.671875 C 236.4375 16.96875 234.292969 15.570312 231.929688 14.46875 C 229.566406 13.355469 226.929688 12.800781 224.023438 12.800781 C 221.972656 12.800781 219.984375 13.140625 218.0625 13.824219 C 216.152344 14.511719 214.4375 15.503906 212.921875 16.8125 C 211.414062 18.125 210.203125 19.710938 209.289062 21.574219 C 208.386719 23.429688 207.933594 25.527344 207.933594 27.863281 C 207.933594 31.261719 208.726562 34.097656 210.316406 36.378906 C 211.914062 38.648438 214.003906 40.363281 216.585938 41.519531 C 219.167969 42.667969 221.957031 43.242188 224.945312 43.242188 C 227.039062 43.242188 228.933594 42.957031 230.625 42.390625 C 232.316406 41.824219 233.828125 41.117188 235.160156 40.269531 C 236.488281 39.425781 237.683594 38.578125 238.742188 37.730469 Z M 241.9375 43.117188"/><path fill="#5048E5" d="M 273.292969 49.042969 L 273.292969 12.972656 L 258.765625 12.972656 L 258.765625 6.683594 L 294.785156 6.683594 L 294.785156 12.972656 L 279.824219 12.972656 L 279.824219 49.042969 Z M 273.292969 49.042969"/><path fill="#5048E5" d="M 359.230469 27.863281 C 359.230469 30.933594 358.644531 33.789062 357.476562 36.429688 C 356.304688 39.070312 354.648438 41.382812 352.507812 43.363281 C 350.375 45.332031 347.855469 46.871094 344.949219 47.984375 C 342.039062 49.09375 338.832031 49.652344 335.324219 49.652344 C 331.855469 49.652344 328.660156 49.09375 325.730469 47.984375 C 322.8125 46.871094 320.292969 45.332031 318.175781 43.363281 C 316.054688 41.382812 314.40625 39.070312 313.238281 36.429688 C 312.066406 33.789062 311.484375 30.933594 311.484375 27.863281 C 311.484375 24.796875 312.066406 21.9375 313.238281 19.296875 C 314.40625 16.65625 316.054688 14.355469 318.175781 12.382812 C 320.292969 10.402344 322.8125 8.855469 325.730469 7.742188 C 328.660156 6.632812 331.855469 6.074219 335.324219 6.074219 C 338.832031 6.074219 342.039062 6.632812 344.949219 7.742188 C 347.855469 8.855469 350.375 10.402344 352.507812 12.382812 C 354.648438 14.355469 356.304688 16.65625 357.476562 19.296875 C 358.644531 21.9375 359.230469 24.796875 359.230469 27.863281 Z M 352.578125 27.863281 C 352.578125 24.921875 351.839844 22.292969 350.371094 19.976562 C 348.898438 17.648438 346.859375 15.8125 344.253906 14.46875 C 341.648438 13.113281 338.667969 12.433594 335.324219 12.433594 C 331.9375 12.433594 328.953125 13.113281 326.375 14.46875 C 323.789062 15.8125 321.769531 17.648438 320.3125 19.976562 C 318.859375 22.292969 318.140625 24.921875 318.140625 27.863281 C 318.140625 30.808594 318.859375 33.441406 320.3125 35.769531 C 321.769531 38.089844 323.789062 39.921875 326.375 41.277344 C 328.953125 42.625 331.9375 43.292969 335.324219 43.292969 C 338.667969 43.292969 341.648438 42.625 344.253906 41.277344 C 346.859375 39.921875 348.898438 38.074219 350.371094 35.734375 C 351.839844 33.398438 352.578125 30.773438 352.578125 27.863281 Z M 352.578125 27.863281"/><path fill="#5048E5" d="M 416.414062 19.871094 C 416.414062 22.734375 415.53125 25.304688 413.773438 27.585938 C 412.023438 29.871094 409.796875 31.496094 407.101562 32.46875 L 418.601562 49.09375 L 410.488281 49.042969 L 399.714844 33.300781 L 387.015625 33.300781 L 387.015625 49.042969 L 380.464844 49.042969 L 380.464844 6.683594 L 402.808594 6.683594 C 405.179688 6.683594 407.394531 7.253906 409.445312 8.386719 C 411.503906 9.511719 413.183594 11.0625 414.46875 13.042969 C 415.761719 15.015625 416.414062 17.289062 416.414062 19.871094 Z M 401.226562 12.972656 L 387.015625 12.972656 L 387.015625 27.011719 L 401.835938 27.011719 C 403.28125 27.011719 404.589844 26.683594 405.761719 26.023438 C 406.933594 25.351562 407.847656 24.472656 408.507812 23.378906 C 409.175781 22.292969 409.515625 21.121094 409.515625 19.871094 C 409.515625 18.542969 409.136719 17.351562 408.386719 16.308594 C 407.644531 15.257812 406.636719 14.441406 405.363281 13.859375 C 404.097656 13.269531 402.722656 12.972656 401.226562 12.972656 Z M 401.226562 12.972656"/><path fill="#737373" d="M 73.28125 149.125 L 73.28125 113.054688 L 58.753906 113.054688 L 58.753906 106.761719 L 94.773438 106.761719 L 94.773438 113.054688 L 79.8125 113.054688 L 79.8125 149.125 Z M 73.28125 149.125"/><path fill="#737373" d="M 150.621094 119.949219 C 150.621094 122.8125 149.738281 125.386719 147.980469 127.664062 C 146.230469 129.949219 144.003906 131.574219 141.308594 132.546875 L 152.808594 149.175781 L 144.695312 149.125 L 133.921875 133.382812 L 121.222656 133.382812 L 121.222656 149.125 L 114.671875 149.125 L 114.671875 106.761719 L 137.015625 106.761719 C 139.386719 106.761719 141.601562 107.332031 143.652344 108.464844 C 145.710938 109.589844 147.390625 111.140625 148.675781 113.121094 C 149.96875 115.09375 150.621094 117.371094 150.621094 119.949219 Z M 135.433594 113.054688 L 121.222656 113.054688 L 121.222656 127.09375 L 136.042969 127.09375 C 137.488281 127.09375 138.796875 126.761719 139.96875 126.101562 C 141.136719 125.433594 142.054688 124.550781 142.714844 123.460938 C 143.382812 122.375 143.722656 121.203125 143.722656 119.949219 C 143.722656 118.621094 143.34375 117.429688 142.59375 116.390625 C 141.851562 115.335938 140.84375 114.519531 139.570312 113.9375 C 138.304688 113.347656 136.929688 113.054688 135.433594 113.054688 Z M 135.433594 113.054688"/><path fill="#737373" d="M 208.246094 149.125 L 203.695312 138.960938 L 181.316406 138.960938 L 176.710938 149.125 L 169.933594 149.125 L 189.046875 106.761719 L 196.378906 106.761719 L 215.386719 149.125 Z M 189.238281 121.53125 L 184.148438 132.667969 L 200.863281 132.667969 L 195.648438 121.289062 C 195.128906 119.996094 194.597656 118.71875 194.066406 117.464844 C 193.546875 116.214844 193.027344 114.890625 192.503906 113.488281 C 191.933594 114.9375 191.390625 116.316406 190.871094 117.621094 C 190.351562 118.933594 189.800781 120.238281 189.238281 121.53125 Z M 189.238281 121.53125"/><path fill="#737373" d="M 254.410156 106.761719 C 258.078125 106.761719 261.316406 107.320312 264.121094 108.429688 C 266.921875 109.535156 269.265625 111.0625 271.140625 113.019531 C 273.015625 114.976562 274.429688 117.242188 275.378906 119.8125 C 276.328125 122.375 276.804688 125.085938 276.804688 127.945312 C 276.804688 131.8125 275.957031 135.355469 274.269531 138.558594 C 272.574219 141.769531 270.070312 144.335938 266.761719 146.257812 C 263.449219 148.167969 259.328125 149.125 254.410156 149.125 L 234.738281 149.125 L 234.738281 106.761719 Z M 254.113281 142.832031 C 257.816406 142.832031 260.828125 142.167969 263.148438 140.835938 C 265.476562 139.507812 267.183594 137.707031 268.273438 135.449219 C 269.359375 133.191406 269.90625 130.6875 269.90625 127.945312 C 269.90625 125.28125 269.359375 122.816406 268.273438 120.558594 C 267.183594 118.300781 265.476562 116.488281 263.148438 115.121094 C 260.828125 113.742188 257.816406 113.054688 254.113281 113.054688 L 241.289062 113.054688 L 241.289062 142.832031 Z M 254.113281 142.832031"/><path fill="#737373" d="M 298.042969 106.761719 L 330.117188 106.761719 L 330.117188 113.054688 L 304.59375 113.054688 L 304.59375 124.242188 L 326.796875 124.242188 L 326.796875 130.550781 L 304.59375 130.550781 L 304.59375 142.832031 L 330.117188 142.832031 L 330.117188 149.125 L 298.042969 149.125 Z M 298.042969 106.761719"/><path fill="#737373" d="M 354.328125 136.179688 C 356.46875 138.601562 358.710938 140.488281 361.054688 141.84375 C 363.390625 143.191406 366.273438 143.859375 369.707031 143.859375 C 371.523438 143.859375 373.277344 143.617188 374.96875 143.128906 C 376.660156 142.644531 378.050781 141.929688 379.140625 140.992188 C 380.226562 140.046875 380.773438 138.835938 380.773438 137.378906 C 380.773438 135.363281 379.671875 133.933594 377.472656 133.085938 C 375.285156 132.242188 372.207031 131.535156 368.246094 130.964844 C 363.320312 130.238281 359.421875 128.90625 356.535156 126.96875 C 353.652344 125.039062 352.210938 122.191406 352.210938 118.4375 C 352.210938 115.902344 352.984375 113.722656 354.539062 111.890625 C 356.089844 110.046875 358.171875 108.636719 360.792969 107.648438 C 363.421875 106.65625 366.328125 106.15625 369.515625 106.15625 C 373.476562 106.15625 376.886719 106.808594 379.75 108.101562 C 382.605469 109.386719 384.890625 111.21875 386.59375 113.589844 L 382.113281 118.316406 C 380.695312 116.46875 378.917969 114.957031 376.777344 113.78125 C 374.644531 112.613281 372.164062 112.027344 369.339844 112.027344 C 366.429688 112.027344 364 112.542969 362.042969 113.574219 C 360.085938 114.609375 359.105469 116.050781 359.105469 117.902344 C 359.105469 119.351562 359.582031 120.507812 360.53125 121.375 C 361.480469 122.246094 362.8125 122.933594 364.527344 123.441406 C 366.238281 123.941406 368.25 124.355469 370.558594 124.675781 C 372.769531 125.003906 374.890625 125.417969 376.933594 125.929688 C 378.972656 126.425781 380.796875 127.109375 382.40625 127.976562 C 384.027344 128.847656 385.308594 129.949219 386.246094 131.28125 C 387.195312 132.601562 387.671875 134.25 387.671875 136.230469 C 387.671875 138.976562 386.925781 141.355469 385.429688 143.371094 C 383.945312 145.386719 381.832031 146.953125 379.089844 148.0625 C 376.34375 149.175781 373.113281 149.730469 369.394531 149.730469 C 365.40625 149.730469 361.800781 149.089844 358.570312 147.804688 C 355.335938 146.507812 352.507812 144.40625 350.089844 141.496094 Z M 354.328125 136.179688"/></svg>